<svg width="26" height="26" viewBox="0 0 26 26" fill="none" xmlns="http://www.w3.org/2000/svg">
<g>
<path fillRule="evenodd" clipRule="evenodd" d="M13 7.86669C13.2755 7.86669 13.5273 8.02362 13.6505 8.27206L15.8707 12.7495L18.8566 11.2441C19.1145 11.1141 19.4243 11.15 19.6463 11.3357C19.8682 11.5214 19.9603 11.8219 19.8811 12.1015L17.6993 19.8015C17.6101 20.1163 17.3247 20.3334 17 20.3334H9C8.67529 20.3334 8.38992 20.1163 8.30071 19.8015L6.11889 12.1015C6.03966 11.8219 6.13178 11.5214 6.35372 11.3357C6.57566 11.15 6.88546 11.1141 7.14343 11.2441L10.1293 12.7495L12.3495 8.27206C12.4727 8.02362 12.7245 7.86669 13 7.86669ZM13 10.2398L11.105 14.0613C10.9254 14.4236 10.4886 14.5704 10.1293 14.3893L7.97166 13.3015L9.54858 18.8667H16.4514L18.0283 13.3015L15.8707 14.3893C15.5114 14.5704 15.0746 14.4236 14.895 14.0613L13 10.2398Z" fill="white"/>
<path fillRule="evenodd" clipRule="evenodd" d="M6.81818 10.4334C6.61735 10.4334 6.45455 10.5975 6.45455 10.8C6.45455 11.0025 6.61735 11.1667 6.81818 11.1667C7.01901 11.1667 7.18182 11.0025 7.18182 10.8C7.18182 10.5975 7.01901 10.4334 6.81818 10.4334ZM5 10.8C5 9.7875 5.81403 8.96669 6.81818 8.96669C7.82234 8.96669 8.63636 9.7875 8.63636 10.8C8.63636 11.8125 7.82234 12.6334 6.81818 12.6334C5.81403 12.6334 5 11.8125 5 10.8Z" fill="white"/>
<path fillRule="evenodd" clipRule="evenodd" d="M13 7.13335C12.7992 7.13335 12.6364 7.29752 12.6364 7.50002C12.6364 7.70252 12.7992 7.86669 13 7.86669C13.2008 7.86669 13.3636 7.70252 13.3636 7.50002C13.3636 7.29752 13.2008 7.13335 13 7.13335ZM11.1818 7.50002C11.1818 6.4875 11.9958 5.66669 13 5.66669C14.0042 5.66669 14.8182 6.4875 14.8182 7.50002C14.8182 8.51254 14.0042 9.33335 13 9.33335C11.9958 9.33335 11.1818 8.51254 11.1818 7.50002Z" fill="white"/>
<path fillRule="evenodd" clipRule="evenodd" d="M19.1818 10.4334C18.981 10.4334 18.8182 10.5975 18.8182 10.8C18.8182 11.0025 18.981 11.1667 19.1818 11.1667C19.3826 11.1667 19.5455 11.0025 19.5455 10.8C19.5455 10.5975 19.3826 10.4334 19.1818 10.4334ZM17.3636 10.8C17.3636 9.7875 18.1777 8.96669 19.1818 8.96669C20.186 8.96669 21 9.7875 21 10.8C21 11.8125 20.186 12.6334 19.1818 12.6334C18.1777 12.6334 17.3636 11.8125 17.3636 10.8Z" fill="white"/>
</g>
<defs>
</defs>
</svg>
