<svg width="48" height="48" viewBox="0 0 48 48" fill="none" xmlns="http://www.w3.org/2000/svg">
<circle cx="24" cy="24" r="20" fill="#FFF4E6"/>
<circle cx="24" cy="24" r="19.25" stroke="#7C6F5B" stroke-opacity="0.24" stroke-width="1.5"/>
<rect x="7.33325" y="7.3335" width="33.3333" height="33.3333" rx="16.6667" fill="#7C6F5B" fill-opacity="0.16"/>
<path d="M28.0432 25.0436C29.0236 24.2723 29.7392 23.2145 30.0905 22.0176C30.4417 20.8206 30.4112 19.5439 30.003 18.3651C29.5949 17.1863 28.8295 16.164 27.8133 15.4405C26.7971 14.7169 25.5807 14.3281 24.3332 14.3281C23.0858 14.3281 21.8694 14.7169 20.8532 15.4405C19.837 16.164 19.0716 17.1863 18.6635 18.3651C18.2553 19.5439 18.2248 20.8206 18.576 22.0176C18.9273 23.2145 19.6429 24.2723 20.6232 25.0436C18.9433 25.7167 17.4775 26.833 16.3821 28.2735C15.2867 29.7141 14.6028 31.4249 14.4032 33.2236C14.3888 33.3549 14.4004 33.4878 14.4373 33.6147C14.4742 33.7415 14.5357 33.8599 14.6184 33.9629C14.7853 34.1711 15.028 34.3044 15.2932 34.3336C15.5585 34.3628 15.8244 34.2854 16.0326 34.1185C16.2407 33.9516 16.3741 33.7088 16.4032 33.4436C16.6228 31.4888 17.5549 29.6834 19.0215 28.3724C20.488 27.0614 22.3861 26.3366 24.3532 26.3366C26.3204 26.3366 28.2185 27.0614 29.685 28.3724C31.1516 29.6834 32.0837 31.4888 32.3032 33.4436C32.3304 33.6893 32.4477 33.9163 32.6324 34.0806C32.817 34.245 33.056 34.3351 33.3032 34.3336H33.4132C33.6754 34.3035 33.915 34.1709 34.0798 33.9649C34.2446 33.7588 34.3214 33.496 34.2932 33.2336C34.0927 31.4298 33.4051 29.7146 32.3041 28.2718C31.2031 26.829 29.7302 25.7131 28.0432 25.0436ZM24.3332 24.3336C23.5421 24.3336 22.7688 24.099 22.111 23.6595C21.4532 23.22 20.9405 22.5953 20.6377 21.8644C20.335 21.1335 20.2558 20.3292 20.4101 19.5533C20.5644 18.7773 20.9454 18.0646 21.5048 17.5052C22.0642 16.9458 22.777 16.5648 23.5529 16.4105C24.3288 16.2561 25.1331 16.3354 25.864 16.6381C26.5949 16.9409 27.2196 17.4535 27.6591 18.1113C28.0987 18.7691 28.3332 19.5425 28.3332 20.3336C28.3332 21.3945 27.9118 22.4119 27.1617 23.162C26.4115 23.9122 25.3941 24.3336 24.3332 24.3336Z" fill="#7C6F5B" fill-opacity="0.49"/>
</svg>
