<svg width="263" height="44" viewBox="0 0 263 44" fill="none" xmlns="http://www.w3.org/2000/svg">
<path d="M20.3687 40.859L3.34366 28.2535C1.2405 26.6963 0 24.2343 0 21.6174C0 18.9313 1.3065 16.4132 3.50254 14.8665L20.4668 2.91872C23.1636 1.01942 26.3814 0 29.6799 0H232.918C236.166 0 239.338 0.988944 242.011 2.83532L259.476 14.899C261.683 16.4234 263 18.9344 263 21.6166C263 24.2307 261.748 26.6868 259.633 28.2229L242.111 40.9466C239.378 42.9312 236.087 44 232.71 44H29.8896C26.4614 44 23.1239 42.8989 20.3687 40.859Z" fill="white"/>
</svg>
