<svg width="21" height="15" viewBox="0 0 21 15" fill="none" xmlns="http://www.w3.org/2000/svg">
<path d="M7.15085 12.2538L2.44805 7.55098C2.22301 7.32602 1.91784 7.19964 1.59965 7.19964C1.28145 7.19964 0.976279 7.32602 0.751246 7.55098C0.526281 7.77602 0.399902 8.08119 0.399902 8.39938C0.399902 8.71758 0.526281 9.02275 0.751246 9.24778L5.45405 13.9506C5.67692 14.1735 5.94154 14.3504 6.23278 14.4711C6.52403 14.5918 6.83619 14.6539 7.15145 14.6539C7.4667 14.6539 7.77887 14.5918 8.07011 14.4711C8.36136 14.3504 8.62597 14.1735 8.84885 13.9506L19.9512 2.84819C20.1762 2.62316 20.3026 2.31799 20.3026 1.99979C20.3026 1.68159 20.1762 1.37642 19.9512 1.15139C19.7262 0.926427 19.421 0.800049 19.1028 0.800049C18.7846 0.800049 18.4795 0.926427 18.2544 1.15139L7.15085 12.2538Z" fill="#07C58C"/>
</svg>
