<svg width="31" height="39" viewBox="0 0 31 39" fill="none" xmlns="http://www.w3.org/2000/svg">
<rect y="0.625" width="30.1765" height="38" rx="4" fill="#73A8FB"/>
<path d="M5.51122 11.978C5.3755 11.978 5.26994 11.9428 5.19454 11.8725C5.12417 11.7971 5.08898 11.6915 5.08898 11.5558V7.08457C5.08898 6.94885 5.12417 6.8458 5.19454 6.77543C5.26994 6.70003 5.3755 6.66233 5.51122 6.66233H8.26332C8.36888 6.66233 8.44931 6.68997 8.5046 6.74527C8.5599 6.79553 8.58754 6.87093 8.58754 6.97147C8.58754 7.07703 8.5599 7.15745 8.5046 7.21275C8.44931 7.26804 8.36888 7.29569 8.26332 7.29569H5.84298V8.96203H8.09744C8.20803 8.96203 8.28846 8.98967 8.33872 9.04497C8.39402 9.10026 8.42166 9.17817 8.42166 9.27871C8.42166 9.38427 8.39402 9.46469 8.33872 9.51999C8.28846 9.57025 8.20803 9.59539 8.09744 9.59539H5.84298V11.3447H8.26332C8.36888 11.3447 8.44931 11.3723 8.5046 11.4276C8.5599 11.4829 8.58754 11.5608 8.58754 11.6613C8.58754 11.7669 8.5599 11.8473 8.5046 11.9026C8.44931 11.9529 8.36888 11.978 8.26332 11.978H5.51122ZM9.5301 12.0308C9.42957 12.0308 9.34663 12.0057 9.28128 11.9554C9.21594 11.9001 9.17824 11.8323 9.16818 11.7518C9.15813 11.6664 9.18578 11.5809 9.25112 11.4955L11.0306 9.10529V9.42197L9.34914 7.15997C9.2838 7.06949 9.25364 6.98152 9.25866 6.89607C9.26872 6.81061 9.30642 6.74275 9.37176 6.69249C9.43711 6.63719 9.51754 6.60955 9.61304 6.60955C9.69347 6.60955 9.76384 6.62965 9.82416 6.66987C9.88951 6.70505 9.95486 6.76789 10.0202 6.85837L11.483 8.86401H11.2417L12.6894 6.85837C12.7547 6.76789 12.8175 6.70505 12.8779 6.66987C12.9432 6.62965 13.0186 6.60955 13.1041 6.60955C13.2046 6.60955 13.2875 6.63719 13.3529 6.69249C13.4182 6.74275 13.4534 6.81061 13.4584 6.89607C13.4685 6.97649 13.4383 7.06446 13.368 7.15997L11.6865 9.42197V9.10529L13.4584 11.4955C13.5238 11.5809 13.5514 11.6664 13.5414 11.7518C13.5364 11.8323 13.5012 11.9001 13.4358 11.9554C13.3705 12.0057 13.285 12.0308 13.1795 12.0308C13.1041 12.0308 13.0337 12.0107 12.9683 11.9705C12.903 11.9303 12.8351 11.8674 12.7648 11.782L11.2115 9.65571H11.498L9.95234 11.782C9.887 11.8674 9.81914 11.9303 9.74876 11.9705C9.68342 12.0107 9.61053 12.0308 9.5301 12.0308ZM14.3145 12.0308C14.2139 12.0308 14.1335 12.0082 14.0732 11.9629C14.0129 11.9177 13.9777 11.8574 13.9676 11.782C13.9576 11.7066 13.9727 11.6211 14.0129 11.5256L16.0562 6.94131C16.1065 6.82067 16.1693 6.73521 16.2447 6.68495C16.3251 6.63468 16.4131 6.60955 16.5086 6.60955C16.5991 6.60955 16.682 6.63468 16.7574 6.68495C16.8379 6.73521 16.9032 6.82067 16.9535 6.94131L18.9968 11.5256C19.042 11.6211 19.0596 11.7091 19.0496 11.7895C19.0395 11.8649 19.0069 11.9252 18.9516 11.9705C18.8963 12.0107 18.8184 12.0308 18.7178 12.0308C18.6072 12.0308 18.5193 12.0032 18.4539 11.9479C18.3886 11.8926 18.3308 11.8071 18.2805 11.6915L17.7527 10.47L18.1071 10.6811H14.895L15.2419 10.47L14.7216 11.6915C14.6714 11.8121 14.6161 11.9001 14.5557 11.9554C14.4954 12.0057 14.415 12.0308 14.3145 12.0308ZM16.4935 7.52943L15.355 10.2287L15.1665 10.0478H17.8281L17.6547 10.2287L16.5086 7.52943H16.4935ZM20.2735 12.0308C20.1579 12.0308 20.0674 11.9981 20.0021 11.9328C19.9418 11.8674 19.9116 11.777 19.9116 11.6613V6.97901C19.9116 6.85837 19.9443 6.76789 20.0096 6.70757C20.075 6.64222 20.163 6.60955 20.2735 6.60955C20.3791 6.60955 20.4595 6.62965 20.5148 6.66987C20.5751 6.70505 20.6304 6.7704 20.6807 6.86591L22.6562 10.553H22.4224L24.3904 6.86591C24.4406 6.7704 24.4934 6.70505 24.5487 6.66987C24.604 6.62965 24.6844 6.60955 24.79 6.60955C24.9006 6.60955 24.986 6.64222 25.0464 6.70757C25.1067 6.76789 25.1368 6.85837 25.1368 6.97901V11.6613C25.1368 11.777 25.1067 11.8674 25.0464 11.9328C24.9911 11.9981 24.9056 12.0308 24.79 12.0308C24.6744 12.0308 24.5864 11.9981 24.5261 11.9328C24.4658 11.8674 24.4356 11.777 24.4356 11.6613V7.77071H24.6015L22.8522 11.0054C22.812 11.0808 22.7693 11.1361 22.724 11.1712C22.6788 11.2064 22.616 11.224 22.5355 11.224C22.4551 11.224 22.3898 11.2064 22.3395 11.1712C22.2892 11.131 22.244 11.0757 22.2038 11.0054L20.4394 7.76317H20.6204V11.6613C20.6204 11.777 20.5902 11.8674 20.5299 11.9328C20.4746 11.9981 20.3892 12.0308 20.2735 12.0308Z" fill="#DEEBFF"/>
<rect x="7.82349" y="16.272" width="17.8824" height="1.11765" rx="0.558824" fill="#DEEBFF"/>
<rect x="7.82349" y="21.8601" width="17.8824" height="1.11765" rx="0.558824" fill="#DEEBFF"/>
<rect x="7.82349" y="27.4485" width="17.8824" height="1.11765" rx="0.558824" fill="#DEEBFF"/>
<rect x="7.82349" y="33.0366" width="17.8824" height="1.11765" rx="0.558824" fill="#DEEBFF"/>
<circle cx="5.02953" cy="16.8308" r="0.558824" fill="#DEEBFF"/>
<circle cx="5.02953" cy="22.4189" r="0.558824" fill="#DEEBFF"/>
<circle cx="5.02953" cy="28.0073" r="0.558824" fill="#DEEBFF"/>
<circle cx="5.02953" cy="33.5954" r="0.558824" fill="#DEEBFF"/>
</svg>
