<svg width="28" height="28" viewBox="0 0 28 28" fill="none" xmlns="http://www.w3.org/2000/svg">
<path d="M7.68733 25.4697C6.40214 24.0093 5.11701 22.4905 4.29914 20.6795C3.48132 18.7518 3.24763 16.532 3.65657 14.429C4.06551 12.3259 5.00014 10.3398 6.34376 8.64569C6.22694 10.1061 6.75269 11.6249 7.74576 12.7349C7.16157 9.93088 8.09626 6.89319 9.96558 4.67338C11.8349 2.45356 14.4053 0.993066 17.0924 0C15.7488 1.402 15.5736 3.62182 16.0993 5.49119C16.6251 7.36051 17.735 8.99619 18.7281 10.6903C19.7212 12.3843 20.6558 14.1368 20.7143 16.0646C21.24 15.0715 21.8242 14.0784 22.1747 12.9685C22.5252 11.8586 22.7005 10.6903 22.4084 9.58033C23.4599 10.8655 24.0441 12.1506 24.3362 13.7863C24.6282 15.422 24.5698 17.1161 24.3946 18.7518C24.1609 20.5627 23.6936 22.432 22.7005 23.9508C21.5322 25.7618 19.6628 27.0469 17.6183 27.7479C13.9963 28.3905 10.4329 27.8648 7.68733 25.4697Z" fill="#FC5656"/>
<path d="M12.1269 27.6312C16.917 29.5006 21.6488 23.8341 19.02 19.4529C19.02 19.3944 18.9616 19.3944 18.9616 19.3361C19.1953 21.7311 18.6111 23.4836 17.5012 24.4767C18.0854 23.0747 17.6764 21.4391 16.9754 20.0371C16.2744 18.6935 15.2813 17.4667 14.5219 16.1815C13.7625 14.838 13.1783 13.3191 13.5288 11.8003C12.1268 12.8518 11.1338 14.429 10.7248 16.1231C10.3159 17.8172 10.5496 19.6866 11.309 21.2638C10.4328 20.6212 9.79021 19.5697 9.73178 18.4598C8.79709 19.5697 8.21296 21.0301 8.27134 22.4906C8.27139 24.7688 10.0823 26.8134 12.1269 27.6312Z" fill="#FFD15C"/>
</svg>
