<svg width="78" height="26" viewBox="0 0 78 26" fill="none" xmlns="http://www.w3.org/2000/svg">
<rect x="0.168457" width="77" height="26" rx="13" fill="black"/>
<path d="M18.8378 11.0614L16.171 13.1749L14.4338 9.93554C14.3285 9.73958 14.0101 9.73958 13.9048 9.93554L12.1677 13.1749L9.5002 11.0614C9.3943 10.9768 9.24688 10.9744 9.13797 11.0541C9.02905 11.1338 8.98573 11.2762 9.03146 11.404L10.9173 16.6863C10.96 16.8068 11.0737 16.8872 11.2001 16.8872H17.1367C17.2631 16.8872 17.3768 16.8068 17.4195 16.6863L19.3053 11.404C19.3511 11.2762 19.3072 11.1338 19.1988 11.0541C19.0917 10.9744 18.9437 10.9768 18.8378 11.0614ZM16.9261 16.2786H11.4119L9.95331 12.1933L12.0762 13.876C12.146 13.9314 12.2363 13.9527 12.3229 13.9344C12.4096 13.9168 12.4842 13.8608 12.5263 13.7817L14.169 10.7182L15.8117 13.7811C15.8538 13.8602 15.9285 13.9162 16.0151 13.9338C16.1024 13.9521 16.192 13.9308 16.2618 13.8754L18.3847 12.1927L16.9261 16.2786Z" fill="#FFDF72"/>
<path d="M16.9998 17.0562H11.1683C11.0052 17.0562 10.8728 17.2076 10.8728 17.3942C10.8728 17.5808 11.0052 17.7322 11.1683 17.7322H16.9998C17.1629 17.7322 17.2953 17.5808 17.2953 17.3942C17.2953 17.2076 17.1629 17.0562 16.9998 17.0562Z" fill="#FFDF72"/>
<path d="M11.2107 16.4649L9.43604 11.479L12.3093 13.5072L14.2529 10.2959L16.1966 13.5072L18.9853 11.648L17.2107 16.4649H11.2107Z" fill="#FFDF72"/>
<ellipse cx="9.09803" cy="10.8871" rx="0.929577" ry="0.929577" fill="#FFDF72"/>
<ellipse cx="14.1683" cy="9.19716" rx="0.929577" ry="0.929577" fill="#FFDF72"/>
<ellipse cx="19.2389" cy="10.8871" rx="0.929577" ry="0.929577" fill="#FFDF72"/>
<g filter="url(#filter0_d_451_2761)">
<path d="M29.9896 8.552C31.7296 8.552 33.2296 9.428 33.8656 11.06H32.2216C31.7776 10.22 30.9856 9.8 29.9896 9.8C28.3336 9.8 27.1336 10.976 27.1336 12.812C27.1336 14.648 28.3336 15.836 29.9896 15.836C31.5016 15.836 32.4496 14.924 32.6536 13.52H29.5216V12.428H34.1176V13.496C33.8656 15.428 32.2336 17.072 29.9896 17.072C27.6376 17.072 25.7296 15.32 25.7296 12.812C25.7296 10.316 27.6376 8.552 29.9896 8.552ZM38.2509 11.432C37.3269 11.432 36.5829 12.056 36.4389 13.1H40.0989C40.0749 12.08 39.2709 11.432 38.2509 11.432ZM41.3469 15.032C40.9749 16.184 39.9309 17.108 38.3109 17.108C36.4149 17.108 35.0109 15.764 35.0109 13.688C35.0109 11.612 36.3549 10.28 38.3109 10.28C40.1949 10.28 41.5269 11.588 41.5269 13.532C41.5269 13.76 41.5149 13.976 41.4789 14.204H36.4269C36.5229 15.296 37.3029 15.956 38.3109 15.956C39.1509 15.956 39.6189 15.548 39.8709 15.032H41.3469ZM43.0891 15.164V11.504H42.3091V10.388H43.0891V8.744H44.4691V10.388H46.0771V11.504H44.4691V15.164C44.4691 15.656 44.6611 15.86 45.2371 15.86H46.0771V17H44.9971C43.8211 17 43.0891 16.508 43.0891 15.164ZM51.8232 12.5H53.3352C54.4032 12.5 54.8832 11.984 54.8832 11.144C54.8832 10.28 54.4032 9.776 53.3352 9.776H51.8232V12.5ZM56.2872 11.144C56.2872 12.332 55.5072 13.616 53.3352 13.616H51.8232V17H50.4552V8.66H53.3352C55.3152 8.66 56.2872 9.788 56.2872 11.144ZM58.9599 13.52V17H57.5919V10.388H58.9599V11.348C59.3439 10.688 60.0039 10.28 60.9399 10.28V11.696H60.5919C59.5839 11.696 58.9599 12.116 58.9599 13.52ZM68.4974 13.688C68.4974 15.764 66.9614 17.108 65.0654 17.108C63.1814 17.108 61.7534 15.764 61.7534 13.688C61.7534 11.612 63.2414 10.28 65.1254 10.28C67.0094 10.28 68.4974 11.612 68.4974 13.688ZM63.1454 13.688C63.1454 15.188 64.0334 15.92 65.0654 15.92C66.0854 15.92 67.0934 15.188 67.0934 13.688C67.0934 12.188 66.1214 11.468 65.1014 11.468C64.0694 11.468 63.1454 12.188 63.1454 13.688Z" fill="#FFDF72"/>
</g>
<defs>
<filter id="filter0_d_451_2761" x="21.7297" y="4.55176" width="50.7676" height="16.5562" filterUnits="userSpaceOnUse" color-interpolation-filters="sRGB">
<feFlood flood-opacity="0" result="BackgroundImageFix"/>
<feColorMatrix in="SourceAlpha" type="matrix" values="0 0 0 0 0 0 0 0 0 0 0 0 0 0 0 0 0 0 127 0" result="hardAlpha"/>
<feOffset/>
<feGaussianBlur stdDeviation="2"/>
<feComposite in2="hardAlpha" operator="out"/>
<feColorMatrix type="matrix" values="0 0 0 0 1 0 0 0 0 0.833027 0 0 0 0 0.545833 0 0 0 0.73 0"/>
<feBlend mode="normal" in2="BackgroundImageFix" result="effect1_dropShadow_451_2761"/>
<feBlend mode="normal" in="SourceGraphic" in2="effect1_dropShadow_451_2761" result="shape"/>
</filter>
</defs>
</svg>
