<svg width="38" height="39" viewBox="0 0 38 39" fill="none" xmlns="http://www.w3.org/2000/svg">
<path d="M18.1034 5.60838C18.4702 4.86521 19.53 4.86521 19.8968 5.60838L23.6601 13.2325C23.8057 13.5274 24.0869 13.7318 24.4122 13.7794L32.8296 15.0097C33.6495 15.1295 33.9763 16.1374 33.3827 16.7155L27.2935 22.6464C27.0577 22.8762 26.95 23.2073 27.0057 23.5318L28.4425 31.9094C28.5826 32.7263 27.7251 33.3493 26.9914 32.9635L19.4655 29.0057C19.1742 28.8525 18.826 28.8525 18.5346 29.0057L11.0087 32.9635C10.2751 33.3493 9.41753 32.7263 9.55765 31.9094L10.9945 23.5318C11.0502 23.2073 10.9425 22.8762 10.7066 22.6464L4.61743 16.7155C4.02383 16.1374 4.35062 15.1295 5.17053 15.0097L13.5879 13.7794C13.9133 13.7318 14.1945 13.5274 14.34 13.2325L18.1034 5.60838Z" fill="#2C9CB5" stroke="#2C9CB5" stroke-width="1.5" stroke-linecap="round" stroke-linejoin="round"/>
</svg>
