<svg width="21" height="21" viewBox="0 0 21 21" fill="none" xmlns="http://www.w3.org/2000/svg">
<path fill-rule="evenodd" clip-rule="evenodd" d="M10.5554 0.500488C5.03542 0.500488 0.55542 4.98049 0.55542 10.5005C0.55542 16.0205 5.03542 20.5005 10.5554 20.5005C16.0754 20.5005 20.5554 16.0205 20.5554 10.5005C20.5554 4.98049 16.0754 0.500488 10.5554 0.500488ZM12.9188 15.2252V13.8489C12.9188 13.7686 12.8932 13.7027 12.8421 13.6511C12.791 13.5995 12.7256 13.5737 12.6461 13.5737H11.828V9.16951C11.828 9.08922 11.8024 9.02327 11.7513 8.97166C11.7001 8.92005 11.6348 8.89425 11.5552 8.89425H8.82813C8.74859 8.89425 8.68325 8.92005 8.63212 8.97166C8.58099 9.02327 8.55542 9.08922 8.55542 9.16951V10.5458C8.55542 10.6261 8.58099 10.692 8.63212 10.7436C8.68325 10.7953 8.74859 10.8211 8.82813 10.8211H9.64626V13.5737H8.82813C8.74859 13.5737 8.68325 13.5995 8.63212 13.6511C8.58099 13.7027 8.55542 13.7686 8.55542 13.8489V15.2252C8.55542 15.3055 8.58099 15.3715 8.63212 15.4231C8.68325 15.4747 8.74859 15.5005 8.82813 15.5005H12.6461C12.7256 15.5005 12.791 15.4747 12.8421 15.4231C12.8932 15.3715 12.9188 15.3055 12.9188 15.2252ZM11.4642 5.77575V7.15205C11.4642 7.23233 11.4387 7.29828 11.3875 7.34989C11.3364 7.4015 11.2711 7.42731 11.1915 7.42731H9.55526C9.47572 7.42731 9.41039 7.4015 9.35925 7.34989C9.30812 7.29828 9.28255 7.23233 9.28255 7.15205V5.77575C9.28255 5.69546 9.30812 5.62952 9.35925 5.57791C9.41039 5.52629 9.47572 5.50049 9.55526 5.50049H11.1915C11.2711 5.50049 11.3364 5.52629 11.3875 5.57791C11.4387 5.62952 11.4642 5.69546 11.4642 5.77575Z" fill="white" fill-opacity="0.24"/>
</svg>
