<svg width="25" height="16" viewBox="0 0 25 16" fill="none" xmlns="http://www.w3.org/2000/svg">
<path d="M10.353 2.78535V13.2161C10.353 15.3524 12.5963 16.693 14.3866 15.6249L18.7573 13.0199L23.1279 10.404C24.9183 9.3359 24.9183 6.66555 23.1279 5.5974L18.7573 2.98154L14.3866 0.376583C12.5963 -0.691559 10.353 0.638169 10.353 2.78535Z" fill="white"/>
<path d="M0 2.78535V13.2161C0 15.3524 2.24324 16.693 4.03361 15.6249L8.40424 13.0199L12.7749 10.404C14.5652 9.3359 14.5652 6.66555 12.7749 5.5974L8.40424 2.98154L4.03361 0.376583C2.24324 -0.691559 0 0.638169 0 2.78535Z" fill="white"/>
</svg>
