<svg width="54" height="26" viewBox="0 0 54 26" fill="none" xmlns="http://www.w3.org/2000/svg">
<rect x="0.5" width="53" height="26" rx="13" fill="#212121"/>
<path d="M19.1694 11.0616L16.5026 13.1752L14.7654 9.93579C14.6601 9.73983 14.3418 9.73983 14.2365 9.93579L12.4993 13.1752L9.83184 11.0616C9.72594 10.977 9.57851 10.9746 9.4696 11.0543C9.36069 11.134 9.31736 11.2765 9.36309 11.4043L11.2489 16.6866C11.2916 16.8071 11.4054 16.8874 11.5317 16.8874H17.4684C17.5947 16.8874 17.7084 16.8071 17.7512 16.6866L19.637 11.4043C19.6827 11.2765 19.6388 11.134 19.5305 11.0543C19.4234 10.9746 19.2753 10.977 19.1694 11.0616ZM17.2578 16.2788H11.7435L10.2849 12.1936L12.4078 13.8762C12.4776 13.9316 12.5679 13.9529 12.6545 13.9347C12.7412 13.917 12.8158 13.861 12.8579 13.7819L14.5006 10.7184L16.1434 13.7813C16.1855 13.8604 16.2601 13.9164 16.3467 13.9341C16.434 13.9523 16.5236 13.931 16.5934 13.8756L18.7163 12.1929L17.2578 16.2788Z" fill="#FFDF72"/>
<path d="M17.3312 17.0564H11.4998C11.3366 17.0564 11.2042 17.2078 11.2042 17.3944C11.2042 17.581 11.3366 17.7325 11.4998 17.7325H17.3312C17.4944 17.7325 17.6268 17.581 17.6268 17.3944C17.6268 17.2078 17.4944 17.0564 17.3312 17.0564Z" fill="#FFDF72"/>
<path d="M11.5423 16.4647L9.76761 11.4788L12.6408 13.5069L14.5845 10.2957L16.5282 13.5069L19.3169 11.6478L17.5423 16.4647H11.5423Z" fill="#FFDF72"/>
<ellipse cx="9.42958" cy="10.8873" rx="0.929577" ry="0.929577" fill="#FFDF72"/>
<ellipse cx="14.5" cy="9.19716" rx="0.929577" ry="0.929577" fill="#FFDF72"/>
<ellipse cx="19.5704" cy="10.8873" rx="0.929577" ry="0.929577" fill="#FFDF72"/>
<g filter="url(#filter0_d_306_3467)">
<path d="M27.8852 12.5H29.3972C30.4652 12.5 30.9452 11.984 30.9452 11.144C30.9452 10.28 30.4652 9.776 29.3972 9.776H27.8852V12.5ZM32.3492 11.144C32.3492 12.332 31.5692 13.616 29.3972 13.616H27.8852V17H26.5172V8.66H29.3972C31.3772 8.66 32.3492 9.788 32.3492 11.144ZM35.0219 13.52V17H33.6539V10.388H35.0219V11.348C35.4059 10.688 36.0659 10.28 37.0019 10.28V11.696H36.6539C35.6459 11.696 35.0219 12.116 35.0219 13.52ZM44.5594 13.688C44.5594 15.764 43.0234 17.108 41.1274 17.108C39.2434 17.108 37.8154 15.764 37.8154 13.688C37.8154 11.612 39.3034 10.28 41.1874 10.28C43.0714 10.28 44.5594 11.612 44.5594 13.688ZM39.2074 13.688C39.2074 15.188 40.0954 15.92 41.1274 15.92C42.1474 15.92 43.1554 15.188 43.1554 13.688C43.1554 12.188 42.1834 11.468 41.1634 11.468C40.1314 11.468 39.2074 12.188 39.2074 13.688Z" fill="#FFDF72"/>
</g>
<defs>
<filter id="filter0_d_306_3467" x="22.5172" y="4.65991" width="26.0422" height="16.448" filterUnits="userSpaceOnUse" color-interpolation-filters="sRGB">
<feFlood flood-opacity="0" result="BackgroundImageFix"/>
<feColorMatrix in="SourceAlpha" type="matrix" values="0 0 0 0 0 0 0 0 0 0 0 0 0 0 0 0 0 0 127 0" result="hardAlpha"/>
<feOffset/>
<feGaussianBlur stdDeviation="2"/>
<feComposite in2="hardAlpha" operator="out"/>
<feColorMatrix type="matrix" values="0 0 0 0 1 0 0 0 0 0.833027 0 0 0 0 0.545833 0 0 0 0.73 0"/>
<feBlend mode="normal" in2="BackgroundImageFix" result="effect1_dropShadow_306_3467"/>
<feBlend mode="normal" in="SourceGraphic" in2="effect1_dropShadow_306_3467" result="shape"/>
</filter>
</defs>
</svg>
