<svg width="87" height="20" viewBox="0 0 87 20" fill="none" xmlns="http://www.w3.org/2000/svg">
<rect y="1" width="87" height="19" rx="9.5" fill="#212121"/>
<g filter="url(#filter0_d_451_1785)">
<path fill-rule="evenodd" clip-rule="evenodd" d="M10.5 7.1125C10.655 7.1125 10.7966 7.20078 10.8659 7.34052L12.1148 9.85907L13.7943 9.0123C13.9394 8.93914 14.1137 8.95936 14.2385 9.06383C14.3634 9.1683 14.4152 9.33728 14.3706 9.49457L13.1434 13.8258C13.0932 14.0029 12.9327 14.125 12.75 14.125H8.25C8.06735 14.125 7.90683 14.0029 7.85665 13.8258L6.62938 9.49457C6.58481 9.33728 6.63663 9.1683 6.76147 9.06383C6.88631 8.95936 7.06057 8.93914 7.20568 9.0123L8.88523 9.85907L10.1341 7.34052C10.2034 7.20078 10.345 7.1125 10.5 7.1125ZM10.5 8.44738L9.43408 10.597C9.33304 10.8007 9.08731 10.8833 8.88523 10.7815L7.67156 10.1696L8.55858 13.3H12.4414L13.3284 10.1696L12.1148 10.7815C11.9127 10.8833 11.667 10.8007 11.5659 10.597L10.5 8.44738Z" fill="#FFDF72"/>
<path fill-rule="evenodd" clip-rule="evenodd" d="M7.02273 8.55625C6.90976 8.55625 6.81818 8.64859 6.81818 8.7625C6.81818 8.87641 6.90976 8.96875 7.02273 8.96875C7.13569 8.96875 7.22727 8.87641 7.22727 8.7625C7.22727 8.64859 7.13569 8.55625 7.02273 8.55625ZM6 8.7625C6 8.19296 6.45789 7.73125 7.02273 7.73125C7.58756 7.73125 8.04545 8.19296 8.04545 8.7625C8.04545 9.33204 7.58756 9.79375 7.02273 9.79375C6.45789 9.79375 6 9.33204 6 8.7625Z" fill="#FFDF72"/>
<path fill-rule="evenodd" clip-rule="evenodd" d="M10.5 6.7C10.387 6.7 10.2955 6.79234 10.2955 6.90625C10.2955 7.02016 10.387 7.1125 10.5 7.1125C10.613 7.1125 10.7045 7.02016 10.7045 6.90625C10.7045 6.79234 10.613 6.7 10.5 6.7ZM9.47727 6.90625C9.47727 6.33671 9.93516 5.875 10.5 5.875C11.0648 5.875 11.5227 6.33671 11.5227 6.90625C11.5227 7.47579 11.0648 7.9375 10.5 7.9375C9.93516 7.9375 9.47727 7.47579 9.47727 6.90625Z" fill="#FFDF72"/>
<path fill-rule="evenodd" clip-rule="evenodd" d="M13.9773 8.55625C13.8643 8.55625 13.7727 8.64859 13.7727 8.7625C13.7727 8.87641 13.8643 8.96875 13.9773 8.96875C14.0902 8.96875 14.1818 8.87641 14.1818 8.7625C14.1818 8.64859 14.0902 8.55625 13.9773 8.55625ZM12.9545 8.7625C12.9545 8.19296 13.4124 7.73125 13.9773 7.73125C14.5421 7.73125 15 8.19296 15 8.7625C15 9.33204 14.5421 9.79375 13.9773 9.79375C13.4124 9.79375 12.9545 9.33204 12.9545 8.7625Z" fill="#FFDF72"/>
</g>
<g filter="url(#filter1_d_451_1785)">
<path d="M25.2077 9.12C25.2077 9.47333 25.1243 9.80667 24.9577 10.12C24.791 10.4333 24.5243 10.69 24.1577 10.89C23.791 11.0833 23.321 11.18 22.7477 11.18H21.4877V14H20.3477V7.05H22.7477C23.281 7.05 23.731 7.14333 24.0977 7.33C24.471 7.51 24.7477 7.75667 24.9277 8.07C25.1143 8.38333 25.2077 8.73333 25.2077 9.12ZM22.7477 10.25C23.181 10.25 23.5043 10.1533 23.7177 9.96C23.931 9.76 24.0377 9.48 24.0377 9.12C24.0377 8.36 23.6077 7.98 22.7477 7.98H21.4877V10.25H22.7477ZM27.4349 9.29C27.6016 9.01 27.8216 8.79333 28.0949 8.64C28.3749 8.48 28.7049 8.4 29.0849 8.4V9.58H28.7949C28.3483 9.58 28.0083 9.69333 27.7749 9.92C27.5483 10.1467 27.4349 10.54 27.4349 11.1V14H26.2949V8.49H27.4349V9.29ZM32.5228 14.09C32.0028 14.09 31.5328 13.9733 31.1128 13.74C30.6928 13.5 30.3628 13.1667 30.1228 12.74C29.8828 12.3067 29.7628 11.8067 29.7628 11.24C29.7628 10.68 29.8861 10.1833 30.1328 9.75C30.3795 9.31667 30.7161 8.98333 31.1428 8.75C31.5695 8.51667 32.0461 8.4 32.5728 8.4C33.0995 8.4 33.5761 8.51667 34.0028 8.75C34.4295 8.98333 34.7661 9.31667 35.0128 9.75C35.2595 10.1833 35.3828 10.68 35.3828 11.24C35.3828 11.8 35.2561 12.2967 35.0028 12.73C34.7495 13.1633 34.4028 13.5 33.9628 13.74C33.5295 13.9733 33.0495 14.09 32.5228 14.09ZM32.5228 13.1C32.8161 13.1 33.0895 13.03 33.3428 12.89C33.6028 12.75 33.8128 12.54 33.9728 12.26C34.1328 11.98 34.2128 11.64 34.2128 11.24C34.2128 10.84 34.1361 10.5033 33.9828 10.23C33.8295 9.95 33.6261 9.74 33.3728 9.6C33.1195 9.46 32.8461 9.39 32.5528 9.39C32.2595 9.39 31.9861 9.46 31.7328 9.6C31.4861 9.74 31.2895 9.95 31.1428 10.23C30.9961 10.5033 30.9228 10.84 30.9228 11.24C30.9228 11.8333 31.0728 12.2933 31.3728 12.62C31.6795 12.94 32.0628 13.1 32.5228 13.1ZM38.7274 10.51C38.7274 9.83 38.8841 9.22 39.1974 8.68C39.5174 8.14 39.9474 7.72 40.4874 7.42C41.0341 7.11333 41.6308 6.96 42.2774 6.96C43.0174 6.96 43.6741 7.14333 44.2474 7.51C44.8274 7.87 45.2474 8.38333 45.5074 9.05H44.1374C43.9574 8.68333 43.7074 8.41 43.3874 8.23C43.0674 8.05 42.6974 7.96 42.2774 7.96C41.8174 7.96 41.4074 8.06333 41.0474 8.27C40.6874 8.47667 40.4041 8.77333 40.1974 9.16C39.9974 9.54667 39.8974 9.99667 39.8974 10.51C39.8974 11.0233 39.9974 11.4733 40.1974 11.86C40.4041 12.2467 40.6874 12.5467 41.0474 12.76C41.4074 12.9667 41.8174 13.07 42.2774 13.07C42.6974 13.07 43.0674 12.98 43.3874 12.8C43.7074 12.62 43.9574 12.3467 44.1374 11.98H45.5074C45.2474 12.6467 44.8274 13.16 44.2474 13.52C43.6741 13.88 43.0174 14.06 42.2774 14.06C41.6241 14.06 41.0274 13.91 40.4874 13.61C39.9474 13.3033 39.5174 12.88 39.1974 12.34C38.8841 11.8 38.7274 11.19 38.7274 10.51ZM49.2318 14.09C48.7118 14.09 48.2418 13.9733 47.8218 13.74C47.4018 13.5 47.0718 13.1667 46.8318 12.74C46.5918 12.3067 46.4718 11.8067 46.4718 11.24C46.4718 10.68 46.5951 10.1833 46.8418 9.75C47.0885 9.31667 47.4251 8.98333 47.8518 8.75C48.2785 8.51667 48.7551 8.4 49.2818 8.4C49.8085 8.4 50.2851 8.51667 50.7118 8.75C51.1385 8.98333 51.4751 9.31667 51.7218 9.75C51.9685 10.1833 52.0918 10.68 52.0918 11.24C52.0918 11.8 51.9651 12.2967 51.7118 12.73C51.4585 13.1633 51.1118 13.5 50.6718 13.74C50.2385 13.9733 49.7585 14.09 49.2318 14.09ZM49.2318 13.1C49.5251 13.1 49.7985 13.03 50.0518 12.89C50.3118 12.75 50.5218 12.54 50.6818 12.26C50.8418 11.98 50.9218 11.64 50.9218 11.24C50.9218 10.84 50.8451 10.5033 50.6918 10.23C50.5385 9.95 50.3351 9.74 50.0818 9.6C49.8285 9.46 49.5551 9.39 49.2618 9.39C48.9685 9.39 48.6951 9.46 48.4418 9.6C48.1951 9.74 47.9985 9.95 47.8518 10.23C47.7051 10.5033 47.6318 10.84 47.6318 11.24C47.6318 11.8333 47.7818 12.2933 48.0818 12.62C48.3885 12.94 48.7718 13.1 49.2318 13.1ZM55.9988 8.4C56.4321 8.4 56.8188 8.49 57.1588 8.67C57.5054 8.85 57.7754 9.11667 57.9688 9.47C58.1621 9.82333 58.2588 10.25 58.2588 10.75V14H57.1288V10.92C57.1288 10.4267 57.0054 10.05 56.7588 9.79C56.5121 9.52333 56.1754 9.39 55.7488 9.39C55.3221 9.39 54.9821 9.52333 54.7288 9.79C54.4821 10.05 54.3588 10.4267 54.3588 10.92V14H53.2188V8.49H54.3588V9.12C54.5454 8.89333 54.7821 8.71667 55.0688 8.59C55.3621 8.46333 55.6721 8.4 55.9988 8.4ZM61.0429 9.42V12.47C61.0429 12.6767 61.0896 12.8267 61.1829 12.92C61.2829 13.0067 61.4496 13.05 61.6829 13.05H62.3829V14H61.4829C60.9696 14 60.5762 13.88 60.3029 13.64C60.0296 13.4 59.8929 13.01 59.8929 12.47V9.42H59.2429V8.49H59.8929V7.12H61.0429V8.49H62.3829V9.42H61.0429ZM68.4836 11.11C68.4836 11.3167 68.4703 11.5033 68.4436 11.67H64.2336C64.2669 12.11 64.4303 12.4633 64.7236 12.73C65.0169 12.9967 65.3769 13.13 65.8036 13.13C66.4169 13.13 66.8503 12.8733 67.1036 12.36H68.3336C68.1669 12.8667 67.8636 13.2833 67.4236 13.61C66.9903 13.93 66.4503 14.09 65.8036 14.09C65.2769 14.09 64.8036 13.9733 64.3836 13.74C63.9703 13.5 63.6436 13.1667 63.4036 12.74C63.1703 12.3067 63.0536 11.8067 63.0536 11.24C63.0536 10.6733 63.1669 10.1767 63.3936 9.75C63.6269 9.31667 63.9503 8.98333 64.3636 8.75C64.7836 8.51667 65.2636 8.4 65.8036 8.4C66.3236 8.4 66.7869 8.51333 67.1936 8.74C67.6003 8.96667 67.9169 9.28667 68.1436 9.7C68.3703 10.1067 68.4836 10.5767 68.4836 11.11ZM67.2936 10.75C67.2869 10.33 67.1369 9.99333 66.8436 9.74C66.5503 9.48667 66.1869 9.36 65.7536 9.36C65.3603 9.36 65.0236 9.48667 64.7436 9.74C64.4636 9.98667 64.2969 10.3233 64.2436 10.75H67.2936ZM72.3855 8.4C72.8188 8.4 73.2055 8.49 73.5455 8.67C73.8921 8.85 74.1621 9.11667 74.3555 9.47C74.5488 9.82333 74.6455 10.25 74.6455 10.75V14H73.5155V10.92C73.5155 10.4267 73.3921 10.05 73.1455 9.79C72.8988 9.52333 72.5621 9.39 72.1355 9.39C71.7088 9.39 71.3688 9.52333 71.1155 9.79C70.8688 10.05 70.7455 10.4267 70.7455 10.92V14H69.6055V8.49H70.7455V9.12C70.9321 8.89333 71.1688 8.71667 71.4555 8.59C71.7488 8.46333 72.0588 8.4 72.3855 8.4ZM77.4296 9.42V12.47C77.4296 12.6767 77.4763 12.8267 77.5696 12.92C77.6696 13.0067 77.8363 13.05 78.0696 13.05H78.7696V14H77.8696C77.3563 14 76.9629 13.88 76.6896 13.64C76.4163 13.4 76.2796 13.01 76.2796 12.47V9.42H75.6296V8.49H76.2796V7.12H77.4296V8.49H78.7696V9.42H77.4296Z" fill="#FFDF72"/>
</g>
<defs>
<filter id="filter0_d_451_1785" x="1" y="0.875" width="19" height="18.25" filterUnits="userSpaceOnUse" color-interpolation-filters="sRGB">
<feFlood flood-opacity="0" result="BackgroundImageFix"/>
<feColorMatrix in="SourceAlpha" type="matrix" values="0 0 0 0 0 0 0 0 0 0 0 0 0 0 0 0 0 0 127 0" result="hardAlpha"/>
<feOffset/>
<feGaussianBlur stdDeviation="2.5"/>
<feComposite in2="hardAlpha" operator="out"/>
<feColorMatrix type="matrix" values="0 0 0 0 1 0 0 0 0 0.906464 0 0 0 0 0.570833 0 0 0 0.8 0"/>
<feBlend mode="normal" in2="BackgroundImageFix" result="effect1_dropShadow_451_1785"/>
<feBlend mode="normal" in="SourceGraphic" in2="effect1_dropShadow_451_1785" result="shape"/>
</filter>
<filter id="filter1_d_451_1785" x="16.3477" y="2.95996" width="66.4219" height="15.1301" filterUnits="userSpaceOnUse" color-interpolation-filters="sRGB">
<feFlood flood-opacity="0" result="BackgroundImageFix"/>
<feColorMatrix in="SourceAlpha" type="matrix" values="0 0 0 0 0 0 0 0 0 0 0 0 0 0 0 0 0 0 127 0" result="hardAlpha"/>
<feOffset/>
<feGaussianBlur stdDeviation="2"/>
<feComposite in2="hardAlpha" operator="out"/>
<feColorMatrix type="matrix" values="0 0 0 0 1 0 0 0 0 0.833027 0 0 0 0 0.545833 0 0 0 0.73 0"/>
<feBlend mode="normal" in2="BackgroundImageFix" result="effect1_dropShadow_451_1785"/>
<feBlend mode="normal" in="SourceGraphic" in2="effect1_dropShadow_451_1785" result="shape"/>
</filter>
</defs>
</svg>
