<svg width="38" height="39" viewBox="0 0 38 39" fill="none" xmlns="http://www.w3.org/2000/svg">
<g clip-path="url(#clip0_256_36200)">
<path d="M30.5174 25.7481C30.6267 25.7368 30.7172 25.6497 30.7172 25.5399V23.8072C30.7172 23.5215 31.0265 23.343 31.2739 23.4858L34.3586 25.2668L37.4435 27.0478C37.6909 27.1906 37.6909 27.5477 37.4435 27.6906L34.3586 29.4715L31.2739 31.2525C31.0265 31.3953 30.7172 31.2168 30.7172 30.9311V29.3961C30.7172 29.1766 30.5219 29.0059 30.3031 29.0243C20.5772 29.8432 18.3504 24.6174 16.0805 19.2864C14.0664 14.5565 12.0087 9.72396 1.85869 11.2439C0.971479 11.3736 0.147035 10.7596 0.017298 9.87237C-0.112439 8.98507 0.501621 8.16063 1.38883 8.03089C14.0082 6.14112 16.5637 12.1425 19.0649 18.0164C20.9028 22.3328 22.7042 26.5631 30.5174 25.7481Z" fill="#2B4E44"/>
<path fill-rule="evenodd" clip-rule="evenodd" d="M1.38883 31.2192C11.7893 32.7767 15.3535 28.9742 17.6856 24.3005C17.7084 24.2548 17.7059 24.2004 17.6793 24.1567C17.0272 23.0856 16.4888 21.9381 15.9862 20.7871C15.9345 20.6688 15.7652 20.6702 15.7114 20.7876C12.8064 27.1259 9.85407 29.2035 1.85869 28.0062C0.971479 27.8765 0.147035 28.4905 0.017298 29.3777C-0.112439 30.265 0.501621 31.0895 1.38883 31.2192Z" fill="#2B4E44"/>
<path fill-rule="evenodd" clip-rule="evenodd" d="M34.3586 13.9835L37.4434 12.2025C37.6908 12.0597 37.6908 11.7026 37.4434 11.5597L34.3586 9.77876L31.2738 7.99778C31.0264 7.85495 30.7172 8.03349 30.7172 8.31916V9.85416C30.7172 10.0736 30.5252 10.2447 30.3064 10.2262C23.744 9.67289 20.5953 11.8709 18.5439 14.9966C18.5155 15.0398 18.512 15.0949 18.5343 15.1416C18.9444 16.0013 19.3182 16.8796 19.6892 17.7508C19.7984 18.0073 19.9088 18.2676 20.0216 18.5293C20.0715 18.645 20.234 18.6492 20.2919 18.5373C21.9421 15.3454 24.3672 12.8607 30.5174 13.5022C30.6267 13.5135 30.7172 13.6006 30.7172 13.7104V15.4431C30.7172 15.7287 31.0264 15.9073 31.2738 15.7645L34.3586 13.9835Z" fill="#2B4E44"/>
</g>
<defs>
<clipPath id="clip0_256_36200">
<rect width="38" height="38" fill="white" transform="translate(0 0.625)"/>
</clipPath>
</defs>
</svg>
