<svg width="32" height="33" viewBox="0 0 32 33" fill="none" xmlns="http://www.w3.org/2000/svg">
<g clip-path="url(#clip0_306_1579)">
<path d="M23.4214 15.5C22.9032 15.5 22.4839 15.0807 22.4839 14.5625C22.4839 14.0443 22.9032 13.625 23.4214 13.625C25.2653 13.625 26.9096 12.4541 27.5119 10.7118L29.3521 5.39625C29.4181 5.16006 29.3631 4.85975 29.1837 4.62262C29.0061 4.3855 28.7314 4.25 28.4348 4.25H25.2964C24.7782 4.25 24.3589 3.83069 24.3589 3.3125C24.3589 2.79431 24.7782 2.375 25.2964 2.375H28.4348C29.3266 2.375 30.145 2.78244 30.6815 3.49375C31.218 4.20506 31.3846 5.10419 31.1393 5.96019L29.2844 11.3252C28.4201 13.8218 26.0636 15.5 23.4214 15.5Z" fill="#7C6F5B"/>
<path d="M8.57375 15.5C5.93156 15.5 3.575 13.8218 2.71068 11.3252L0.870496 6.00962C0.610496 5.10419 0.777121 4.20513 1.31362 3.49375C1.85012 2.78238 2.66862 2.375 3.56031 2.375H6.69875C7.21693 2.375 7.63625 2.79431 7.63625 3.3125C7.63625 3.83069 7.21693 4.25 6.69875 4.25H3.56031C3.26368 4.25 2.989 4.3855 2.81143 4.62262C2.632 4.85975 2.57706 5.16006 2.65762 5.44569L4.48318 10.7118C5.08556 12.4541 6.72987 13.625 8.57375 13.625C9.09193 13.625 9.51125 14.0443 9.51125 14.5625C9.51125 15.0807 9.09193 15.5 8.57375 15.5Z" fill="#7C6F5B"/>
<path d="M20.4062 27.1562C19.3938 26.125 18.8125 24.6562 18.8125 23.2312V19.9438C18.8125 19.325 18.2311 18.875 17.6312 19.0438C17.1249 19.175 16.5626 19.2501 16 19.2501C15.4374 19.2501 14.875 19.175 14.3687 19.0438C13.7689 18.875 13.1875 19.325 13.1875 19.9438V23.2312C13.1875 24.6562 12.6061 26.125 11.5938 27.1562C10.9939 27.7375 11.4063 28.75 12.25 28.75H19.75C20.5937 28.75 21.0061 27.7375 20.4062 27.1562Z" fill="#7C6F5B"/>
<path d="M25.375 0.5H6.62496C6.04359 0.5 5.6124 1.00631 5.70621 1.56875L7.54371 13.8313C8.18134 18.0875 11.8188 21.125 16 21.125C20.2187 21.125 23.8186 18.05 24.4562 13.8313L26.2937 1.56875C26.3875 1.00631 25.9563 0.5 25.375 0.5Z" fill="#7C6F5B"/>
<path d="M20.4062 27.1562C21.0061 27.7375 20.5937 28.7501 19.75 28.7501H16V19.2501C16.5626 19.2501 17.1249 19.175 17.6313 19.0438C18.2311 18.8751 18.8125 19.325 18.8125 19.9438V23.2312C18.8125 24.6562 19.3939 26.125 20.4062 27.1562Z" fill="#7C6F5B"/>
<path d="M21.1376 7.96238L18.2687 7.5312L16.9751 4.9437C16.8062 4.5687 16.375 4.40001 16.0001 4.47495C15.7002 4.51251 15.4375 4.66238 15.3063 4.9437L14.0124 7.5312L11.1436 7.96238C10.3751 8.07488 10.0752 9.01238 10.6188 9.55607L12.7001 11.5811L12.2126 14.4312C12.0812 15.1999 12.8877 15.7811 13.5812 15.4249L16.0001 14.1499L16.1502 14.0749L18.6999 15.4249C19.3939 15.7811 20.2 15.1999 20.0686 14.4312L19.5811 11.5811L21.6626 9.55607C22.2064 9.01238 21.9064 8.07488 21.1376 7.96238Z" fill="white"/>
<path d="M26.2938 1.56875L24.4562 13.8313C23.8186 18.05 20.2188 21.125 16 21.125V0.5H25.375C25.9564 0.5 26.3876 1.00631 26.2938 1.56875Z" fill="#7C6F5B"/>
<path d="M21.6626 9.55613L19.5811 11.5812L20.0686 14.4313C20.2 15.1999 19.3939 15.7812 18.6999 15.4249L16.1501 14.0749L16 14.1499V4.47495C16.3749 4.40001 16.8061 4.5687 16.9751 4.9437L18.2687 7.5312L21.1375 7.96238C21.9063 8.07488 22.2064 9.01238 21.6626 9.55613Z" fill="white"/>
<path d="M19.75 26.875H12.25C10.6936 26.875 9.4375 28.1312 9.4375 29.6875V31.5625C9.4375 32.0874 9.84994 32.5 10.375 32.5H21.625C22.1501 32.5 22.5625 32.0874 22.5625 31.5625V29.6875C22.5625 28.1312 21.3064 26.875 19.75 26.875Z" fill="#E5E2CB"/>
<path d="M22.5625 29.6875V31.5625C22.5625 32.0874 22.1501 32.5 21.625 32.5H16V26.875H19.75C21.3064 26.875 22.5625 28.1312 22.5625 29.6875Z" fill="#E5E2CB"/>
</g>
<defs>
<clipPath id="clip0_306_1579">
<rect width="32" height="32" fill="white" transform="translate(0 0.5)"/>
</clipPath>
</defs>
</svg>
