<svg width="32" height="33" viewBox="0 0 32 33" fill="none" xmlns="http://www.w3.org/2000/svg">
<path d="M1.87292 26.4878V8.98572H27.2602V26.486C27.2602 27.0525 26.8009 27.5137 26.2325 27.5137H2.89881C2.33222 27.5156 1.87292 27.0544 1.87292 26.4878Z" fill="#7C6F5B"/>
<path d="M2.9798 4.43987C2.36803 4.43987 1.87109 4.93681 1.87109 5.54858V8.98764H27.2584V5.54669C27.2584 4.93493 26.7633 4.43799 26.1516 4.43799L2.9798 4.43987Z" fill="#E5E2CB"/>
<path d="M4.27295 11.3876H7.63295V14.7476H4.27295V11.3876Z" fill="white"/>
<path d="M10.0142 11.3876H13.3742V14.7476H10.0142V11.3876Z" fill="white"/>
<path d="M15.7572 11.3876H19.1172V14.7476H15.7572V11.3876Z" fill="white"/>
<path d="M21.5002 11.3876H24.8602V14.7476H21.5002V11.3876Z" fill="white"/>
<path d="M4.27295 16.5697H7.63295V19.9297H4.27295V16.5697Z" fill="white"/>
<path d="M10.0142 16.5697H13.3742V19.9297H10.0142V16.5697Z" fill="white"/>
<path d="M15.7572 16.5697H19.1172V19.9297H15.7572V16.5697Z" fill="white"/>
<path d="M21.5002 16.5697H24.8602V19.9297H21.5002V16.5697Z" fill="white"/>
<path d="M4.27295 21.7537H7.63295V25.1137H4.27295V21.7537Z" fill="white"/>
<path d="M10.0142 21.7537H13.3742V25.1137H10.0142V21.7537Z" fill="white"/>
<path d="M15.7572 21.7537H19.1172V25.1137H15.7572V21.7537Z" fill="white"/>
<path d="M21.5002 21.7537H24.8602V25.1137H21.5002V21.7537Z" fill="white"/>
<path d="M6.55444 6.83605C5.99915 6.83605 5.55115 6.38617 5.55115 5.83276V3.04687C5.55115 2.49158 6.00103 2.04358 6.55444 2.04358C7.10974 2.04358 7.55774 2.49346 7.55774 3.04687V5.83087C7.55774 6.38617 7.10785 6.83605 6.55444 6.83605Z" fill="#7C6F5B"/>
<path d="M22.5789 6.83605C22.0236 6.83605 21.5756 6.38617 21.5756 5.83276V3.04687C21.5756 2.49158 22.0254 2.04358 22.5789 2.04358C23.1342 2.04358 23.5822 2.49346 23.5822 3.04687V5.83087C23.5822 6.38617 23.1323 6.83605 22.5789 6.83605Z" fill="#7C6F5B"/>
<path d="M23.5469 30.6562C27.1971 30.6562 30.1562 27.6971 30.1562 24.0469C30.1562 20.3966 27.1971 17.4375 23.5469 17.4375C19.8966 17.4375 16.9375 20.3966 16.9375 24.0469C16.9375 27.6971 19.8966 30.6562 23.5469 30.6562Z" fill="#E5E2CB"/>
<path d="M23.5469 29.1171C26.3471 29.1171 28.6171 26.8471 28.6171 24.0469C28.6171 21.2467 26.3471 18.9767 23.5469 18.9767C20.7467 18.9767 18.4767 21.2467 18.4767 24.0469C18.4767 26.8471 20.7467 29.1171 23.5469 29.1171Z" fill="#7C6F5B"/>
<path fill-rule="evenodd" clip-rule="evenodd" d="M23.9513 24.6775C23.9513 24.9008 23.7702 25.0819 23.5469 25.0819C23.3768 25.0819 23.2313 24.9769 23.1715 24.8282L21.4723 25.8093C21.2795 25.9209 21.0326 25.8552 20.921 25.6624C20.8093 25.4696 20.8751 25.2227 21.0679 25.1111L23.1425 23.9133V20.4145C23.1425 20.1912 23.3236 20.0101 23.5469 20.0101C23.7703 20.0101 23.9513 20.1912 23.9513 20.4145V23.4801C24.1092 23.458 24.2719 23.5311 24.3567 23.6775C24.4683 23.8703 24.4026 24.1171 24.2098 24.2288L23.9513 24.378V24.6775H23.9513Z" fill="white"/>
</svg>
