<svg width="32" height="33" viewBox="0 0 32 33" fill="none" xmlns="http://www.w3.org/2000/svg">
<g clip-path="url(#clip0_306_1570)">
<path d="M31.3162 6.94563C30.7144 4.22813 28.08 1.73876 25.355 1.21001C23.6944 0.878132 19.0625 0.468132 16 0.500007C12.9375 0.466257 8.30625 0.875007 6.64563 1.20813C3.92063 1.73876 1.28625 4.22813 0.6875 6.94563C0.341875 8.59563 0.005 10.8406 0 13.905C0.005 16.9675 0.341875 19.2131 0.6875 20.8638C1.28938 23.5813 3.92375 26.0706 6.64875 26.5994C7.545 26.7781 9.30813 26.9806 11.2219 27.1231C11.4385 27.4635 11.674 27.826 11.9281 28.2106C12.9438 29.7494 13.7206 30.8213 14.31 31.5681C15.29 32.8106 16.7163 32.8106 17.6963 31.5681C18.2856 30.8213 19.0625 29.7494 20.0781 28.2106C20.3323 27.8265 20.5677 27.464 20.7844 27.1231C22.6987 26.9806 24.4613 26.7781 25.3581 26.5994C28.0831 26.0706 30.7175 23.5813 31.3194 20.8638C31.6619 19.2131 31.9981 16.9688 32.0037 13.905C31.995 10.84 31.6588 8.59626 31.3162 6.94563Z" fill="#7C6F5B"/>
<path d="M16 0.500007C12.9375 0.466257 8.30625 0.875007 6.64563 1.20813C3.92063 1.73876 1.28625 4.22813 0.6875 6.94563C0.341875 8.59563 0.005 10.8406 0 13.905C0.005 16.9675 0.341875 19.2131 0.6875 20.8638C1.04188 22.4631 2.10063 23.9838 3.4675 25.0719C4.80082 25.3911 6.16712 25.552 7.53813 25.5513C17.14 25.5513 24.9237 17.7675 24.9237 8.16626C24.926 5.66582 24.3865 3.19457 23.3425 0.922507C21.2069 0.682507 18.1994 0.477507 16 0.500007Z" fill="#7C6F5B"/>
<path d="M17.7675 23.1963C17.726 23.391 17.629 23.5695 17.4883 23.7102C17.3475 23.851 17.1691 23.9479 16.9744 23.9894C16.3288 24.0886 15.6718 24.0886 15.0263 23.9894C14.8316 23.948 14.653 23.8511 14.5123 23.7103C14.3715 23.5695 14.2746 23.391 14.2331 23.1963C14.1331 22.5506 14.1331 21.8933 14.2331 21.2476C14.2746 21.0528 14.3715 20.8743 14.5123 20.7336C14.653 20.5928 14.8316 20.4958 15.0263 20.4544C15.6718 20.3553 16.3288 20.3553 16.9744 20.4544C17.1694 20.4961 17.3481 20.5935 17.4889 20.7347C17.6297 20.8759 17.7264 21.0549 17.7675 21.2501C17.8675 21.8958 17.8675 22.5531 17.7675 23.1988V23.1963ZM21.5725 12.9594C21.09 13.6419 20.3669 14.2651 19.2969 14.9194C17.9425 15.7544 17.7256 16.0976 17.7256 16.7694V17.0351C17.73 17.2647 17.6885 17.4929 17.6037 17.7064C17.5188 17.9199 17.3922 18.1142 17.2314 18.2782C17.0705 18.4422 16.8785 18.5724 16.6667 18.6613C16.4549 18.7502 16.2275 18.796 15.9978 18.796C15.7681 18.796 15.5407 18.7502 15.3289 18.6613C15.1171 18.5724 14.9252 18.4422 14.7643 18.2782C14.6034 18.1142 14.4768 17.9199 14.392 17.7064C14.3071 17.4929 14.2656 17.2647 14.27 17.0351V16.4194C14.27 15.6269 14.4681 14.9544 14.8756 14.3638C15.2706 13.7913 15.8631 13.2826 16.7406 12.7607C18.3588 11.8088 18.655 11.2744 18.655 10.5651C18.655 9.6738 17.8956 9.09755 16.7175 9.09755C15.4306 9.09755 14.5925 9.68255 14.2269 10.8369C14.1084 11.2083 13.8743 11.5321 13.5588 11.761C13.2433 11.9899 12.8629 12.112 12.4731 12.1094C12.4281 12.1094 12.3825 12.1094 12.3381 12.1044C12.0581 12.0847 11.7863 12.0012 11.5434 11.8604C11.3006 11.7196 11.0931 11.5252 10.9369 11.2919C10.7808 11.0629 10.6791 10.8011 10.6397 10.5267C10.6003 10.2523 10.6241 9.97257 10.7094 9.7088C11.0844 8.50681 11.8535 7.46624 12.8925 6.75505C13.94 6.0413 15.2631 5.66443 16.7175 5.66443C18.2281 5.66443 19.63 6.1463 20.665 7.0213C21.7306 7.9213 22.3169 9.16318 22.3169 10.5176C22.32 11.4488 22.0756 12.2501 21.5725 12.9594Z" fill="white"/>
</g>
<defs>
<clipPath id="clip0_306_1570">
<rect width="32" height="32" fill="white" transform="translate(0 0.5)"/>
</clipPath>
</defs>
</svg>
