<svg width="32" height="33" viewBox="0 0 32 33" fill="none" xmlns="http://www.w3.org/2000/svg">
<path fill-rule="evenodd" clip-rule="evenodd" d="M16.0022 24.7258V27.8571C16.0022 29.5741 14.5974 30.9789 12.8805 30.9789C11.1635 30.9789 9.75867 29.5741 9.75867 27.8571V25.6842L16.0022 24.7258Z" fill="#C8B9A3"/>
<path fill-rule="evenodd" clip-rule="evenodd" d="M14.4671 8.88563L11.2939 8.12238V5.09163C11.2939 4.21906 12.0079 3.50513 12.8804 3.50513C13.7531 3.50513 14.467 4.21913 14.467 5.09163V8.88563H14.4671Z" fill="#E5E2CB"/>
<path fill-rule="evenodd" clip-rule="evenodd" d="M2.31549 25.9261C3.1513 25.097 4.11312 23.8442 4.11312 21.7733V16.205C4.11312 2.95933 21.6478 2.95933 21.6478 16.205V21.7733C21.6478 23.8442 22.6097 25.0971 23.4454 25.9261C23.8671 26.3445 23.5713 27.0626 22.9773 27.0626H2.78362C2.18962 27.0626 1.8938 26.3445 2.31549 25.9261Z" fill="#7C6F5B"/>
<path fill-rule="evenodd" clip-rule="evenodd" d="M4.11311 21.7909C4.1108 22.6751 3.93286 23.4098 3.66467 24.0256H22.0962C21.828 23.4097 21.6501 22.6751 21.6478 21.7909H4.11311Z" fill="#C8B9A3"/>
<path fill-rule="evenodd" clip-rule="evenodd" d="M2.98777 12.3214C2.91334 12.5868 2.6379 12.7415 2.37252 12.6671C2.10721 12.5926 1.9524 12.3172 2.02684 12.0518C2.30384 11.0708 2.6894 10.1274 3.19521 9.24426C3.67665 8.40351 4.2689 7.61457 4.98202 6.89626C5.2659 6.61032 5.56334 6.34213 5.87271 6.0922C6.18571 5.83932 6.51015 5.60545 6.84434 5.3912C7.07627 5.24238 7.38496 5.3097 7.53377 5.54157C7.68259 5.77351 7.61527 6.0822 7.3834 6.23101C7.07684 6.42757 6.78102 6.64063 6.49771 6.86951C6.21634 7.09682 5.94627 7.34026 5.68902 7.59938C5.04296 8.25013 4.50365 8.96976 4.0624 9.74038C3.59671 10.5535 3.24209 11.4206 2.98777 12.3214ZM19.9033 4.67988C19.6768 4.52238 19.6208 4.21107 19.7783 3.98457C19.9358 3.75807 20.2471 3.70207 20.4736 3.85957C20.7964 4.08376 21.1121 4.32495 21.4195 4.58282C21.7196 4.83457 22.0122 5.1037 22.2962 5.3897C22.9945 6.09301 23.597 6.85588 24.1094 7.66551C24.6416 8.50651 25.0755 9.39588 25.4175 10.3196C25.5123 10.5785 25.3795 10.8653 25.1206 10.9603C24.8617 11.0552 24.5749 10.9223 24.48 10.6634C24.161 9.80157 23.758 8.97488 23.2656 8.19676C22.7923 7.4487 22.2351 6.74345 21.5891 6.09282C21.332 5.83388 21.0616 5.58557 20.7788 5.34838C20.4986 5.11332 20.2063 4.89032 19.9033 4.67988ZM18.3775 6.23101C18.6841 6.42757 18.9799 6.64057 19.2633 6.86951C19.5446 7.09682 19.8146 7.34026 20.0718 7.59932C20.718 8.25007 21.2573 8.9697 21.6985 9.74026C22.1642 10.5534 22.5188 11.4206 22.7731 12.3213C22.8476 12.5867 23.123 12.7414 23.3884 12.667C23.6537 12.5926 23.8085 12.3171 23.7341 12.0518C23.4571 11.0707 23.0715 10.1274 22.5657 9.24413C22.0843 8.40338 21.492 7.61445 20.7788 6.89613C20.495 6.61026 20.1976 6.34207 19.8882 6.09213C19.5752 5.83926 19.2508 5.60538 18.9165 5.39113C18.6846 5.24232 18.3759 5.30963 18.2271 5.54151C18.0783 5.77351 18.1456 6.0822 18.3775 6.23101ZM1.28096 10.6634C1.59996 9.80157 2.00284 8.97488 2.49521 8.19682C2.96859 7.44876 3.52571 6.74351 4.17171 6.09288C4.42877 5.83395 4.69934 5.58563 4.98209 5.34845C5.26234 5.11338 5.55459 4.89038 5.85765 4.67988C6.08415 4.52238 6.14015 4.21107 5.98265 3.98457C5.82515 3.75807 5.51384 3.70207 5.28734 3.85957C4.96452 4.08376 4.64884 4.32501 4.34146 4.58282C4.04134 4.83463 3.74871 5.1037 3.46471 5.38976C2.76646 6.09301 2.1639 6.85588 1.65152 7.66557C1.11934 8.50651 0.685398 9.39595 0.343524 10.3196C0.248586 10.5785 0.381524 10.8653 0.640399 10.9603C0.899211 11.0551 1.18602 10.9223 1.28096 10.6634Z" fill="#7C6F5B"/>
<path d="M23.5156 18.3644C28.0287 18.3644 31.6872 14.7058 31.6872 10.1927C31.6872 5.67958 28.0287 2.021 23.5156 2.021C19.0025 2.021 15.3439 5.67958 15.3439 10.1927C15.3439 14.7058 19.0025 18.3644 23.5156 18.3644Z" fill="#E5E2CB"/>
<path d="M23.5155 16.4613C26.9776 16.4613 29.7842 13.6547 29.7842 10.1926C29.7842 6.73054 26.9776 3.92395 23.5155 3.92395C20.0534 3.92395 17.2468 6.73054 17.2468 10.1926C17.2468 13.6547 20.0534 16.4613 23.5155 16.4613Z" fill="#7C6F5B"/>
<path fill-rule="evenodd" clip-rule="evenodd" d="M24.0155 10.9724C24.0155 11.2485 23.7917 11.4724 23.5155 11.4724C23.3053 11.4724 23.1253 11.3426 23.0515 11.1587L20.9505 12.3717C20.7122 12.5098 20.407 12.4285 20.2689 12.1901C20.1308 11.9517 20.2122 11.6465 20.4505 11.5085L23.0156 10.0275V5.70178C23.0156 5.42566 23.2395 5.20178 23.5156 5.20178C23.7917 5.20178 24.0156 5.42566 24.0156 5.70178V9.49197C24.2107 9.46459 24.4119 9.55503 24.5167 9.73603C24.6548 9.97441 24.5735 10.2796 24.3351 10.4177L24.0156 10.6021V10.9724H24.0155Z" fill="white"/>
</svg>
