<svg width="38" height="39" viewBox="0 0 38 39" fill="none" xmlns="http://www.w3.org/2000/svg">
<path d="M26.6316 3.64917H11.3683C8.01159 3.64917 5.25659 6.40417 5.25659 9.76084V32.07C5.25659 34.92 7.29909 36.1233 9.80076 34.7458L17.5274 30.455C18.3508 29.9958 19.6808 29.9958 20.4883 30.455L28.2149 34.7458C30.7166 36.1392 32.7591 34.9358 32.7591 32.07V9.76084C32.7433 6.40417 30.0041 3.64917 26.6316 3.64917Z" fill="#FFB443"/>
<path fill-rule="evenodd" clip-rule="evenodd" d="M14 9C14 8.44772 14.5596 8 15.25 8H22.75C23.4404 8 24 8.44772 24 9C24 9.55228 23.4404 10 22.75 10H15.25C14.5596 10 14 9.55228 14 9Z" fill="white"/>
</svg>
