<svg width="25" height="24" viewBox="0 0 25 24" fill="none" xmlns="http://www.w3.org/2000/svg">
<path d="M8.66846 2V5" stroke="#212121" stroke-width="1.5" stroke-miterlimit="10" stroke-linecap="round" stroke-linejoin="round"/>
<path d="M16.6685 2V5" stroke="#212121" stroke-width="1.5" stroke-miterlimit="10" stroke-linecap="round" stroke-linejoin="round"/>
<path d="M4.16846 9.08984H21.1685" stroke="#212121" stroke-width="1.5" stroke-miterlimit="10" stroke-linecap="round" stroke-linejoin="round"/>
<path d="M13.6685 22H8.66846C5.16846 22 3.66846 20 3.66846 17V8.5C3.66846 5.5 5.16846 3.5 8.66846 3.5H16.6685C20.1685 3.5 21.6685 5.5 21.6685 8.5V12" stroke="#212121" stroke-width="1.5" stroke-miterlimit="10" stroke-linecap="round" stroke-linejoin="round"/>
<path d="M19.6584 14.3299C19.2884 14.2199 18.8684 14.1499 18.4084 14.1499C16.3384 14.1499 14.6685 15.8299 14.6685 17.8899C14.6685 19.9599 16.3484 21.6299 18.4084 21.6299C20.4684 21.6299 22.1484 19.9499 22.1484 17.8899C22.1484 17.1199 21.9184 16.3999 21.5184 15.8099" stroke="#212121" stroke-width="1.5" stroke-linecap="round" stroke-linejoin="round"/>
<path d="M20.1997 14.43L18.9497 13" stroke="#212121" stroke-width="1.5" stroke-linecap="round" stroke-linejoin="round"/>
<path d="M20.1988 14.4302L18.7388 15.4902" stroke="#212121" stroke-width="1.5" stroke-linecap="round" stroke-linejoin="round"/>
<path d="M12.6639 13.7002H12.6729" stroke="#212121" stroke-width="2" stroke-linecap="round" stroke-linejoin="round"/>
<path d="M8.96277 13.7002H8.97175" stroke="#212121" stroke-width="2" stroke-linecap="round" stroke-linejoin="round"/>
<path d="M8.96277 16.7002H8.97175" stroke="#212121" stroke-width="2" stroke-linecap="round" stroke-linejoin="round"/>
</svg>
