<svg width="25" height="24" viewBox="0 0 25 24" fill="none" xmlns="http://www.w3.org/2000/svg">
<path d="M22.5 11.5V15.5C22.5 19 20.5 20.5 17.5 20.5H7.5C4.5 20.5 2.5 19 2.5 15.5V8.5C2.5 5 4.5 3.5 7.5 3.5H12.5" stroke="#292D32" stroke-width="1.5" stroke-miterlimit="10" stroke-linecap="round" stroke-linejoin="round"/>
<path d="M7.5 9L10.63 11.5C11.66 12.32 13.35 12.32 14.38 11.5" stroke="#292D32" stroke-width="1.5" stroke-miterlimit="10" stroke-linecap="round" stroke-linejoin="round"/>
<path d="M19.98 2.81994L20.26 3.38993C20.4 3.66993 20.75 3.92994 21.06 3.98994L21.44 4.04994C22.58 4.23994 22.85 5.07994 22.03 5.90994L21.68 6.25993C21.45 6.49993 21.32 6.95993 21.39 7.27993L21.44 7.48994C21.75 8.86994 21.02 9.39993 19.82 8.67993L19.56 8.52993C19.25 8.34993 18.75 8.34993 18.44 8.52993L18.18 8.67993C16.97 9.40993 16.24 8.86994 16.56 7.48994L16.6099 7.27993C16.6799 6.95993 16.55 6.49993 16.32 6.25993L15.97 5.90994C15.15 5.07994 15.42 4.23994 16.56 4.04994L16.94 3.98994C17.24 3.93994 17.6 3.66993 17.74 3.38993L18.02 2.81994C18.56 1.72994 19.44 1.72994 19.98 2.81994Z" stroke="#292D32" stroke-width="1.5" stroke-linecap="round" stroke-linejoin="round"/>
</svg>
