<svg width="25" height="24" viewBox="0 0 25 24" fill="none" xmlns="http://www.w3.org/2000/svg">
<path fill-rule="evenodd" clip-rule="evenodd" d="M18.3572 20.417C20.2302 20.417 21.7492 18.899 21.7502 17.026V17.024V14.324C20.5132 14.324 19.5112 13.322 19.5102 12.085C19.5102 10.849 20.5122 9.846 21.7492 9.846H21.7502V7.146C21.7522 5.272 20.2352 3.752 18.3622 3.75H18.3562H6.64424C4.77024 3.75 3.25124 5.268 3.25024 7.142V7.143V9.933C4.44424 9.891 5.44524 10.825 5.48724 12.019C5.48824 12.041 5.48924 12.063 5.48924 12.085C5.49024 13.32 4.49124 14.322 3.25624 14.324H3.25024V17.024C3.24924 18.897 4.76824 20.417 6.64124 20.417H6.64224H18.3572Z" stroke="#212121" stroke-width="1.5" stroke-linecap="round" stroke-linejoin="round"/>
<path fill-rule="evenodd" clip-rule="evenodd" d="M12.8713 9.06303L13.4873 10.31C13.5473 10.432 13.6633 10.517 13.7983 10.537L15.1753 10.738C15.5163 10.788 15.6513 11.206 15.4053 11.445L14.4093 12.415C14.3113 12.51 14.2673 12.647 14.2893 12.782L14.5243 14.152C14.5823 14.491 14.2273 14.749 13.9233 14.589L12.6923 13.942C12.5713 13.878 12.4273 13.878 12.3063 13.942L11.0763 14.589C10.7713 14.749 10.4163 14.491 10.4743 14.152L10.7093 12.782C10.7323 12.647 10.6873 12.51 10.5893 12.415L9.59434 11.445C9.34834 11.206 9.48334 10.788 9.82334 10.738L11.2003 10.537C11.3353 10.517 11.4523 10.432 11.5123 10.31L12.1273 9.06303C12.2793 8.75503 12.7193 8.75503 12.8713 9.06303Z" stroke="#212121" stroke-width="1.5" stroke-linecap="round" stroke-linejoin="round"/>
</svg>
