<svg width="25" height="24" viewBox="0 0 25 24" fill="none" xmlns="http://www.w3.org/2000/svg">
<path d="M7.96851 13.8001V9.6001" stroke="#292D32" stroke-width="1.5" stroke-linecap="round" stroke-linejoin="round"/>
<path d="M8.11847 18.0001C9.19542 18.0001 10.0685 17.127 10.0685 16.0501C10.0685 14.9731 9.19542 14.1001 8.11847 14.1001C7.04151 14.1001 6.16846 14.9731 6.16846 16.0501C6.16846 17.127 7.04151 18.0001 8.11847 18.0001Z" stroke="#292D32" stroke-width="1.5" stroke-linecap="round" stroke-linejoin="round"/>
<path d="M7.96844 9.60001C8.96256 9.60001 9.76843 8.7941 9.76843 7.79999C9.76843 6.80588 8.96256 6 7.96844 6C6.97433 6 6.16846 6.80588 6.16846 7.79999C6.16846 8.7941 6.97433 9.60001 7.96844 9.60001Z" stroke="#292D32" stroke-width="1.5" stroke-linecap="round" stroke-linejoin="round"/>
<path d="M16.3683 9.60001C17.3625 9.60001 18.1683 8.7941 18.1683 7.79999C18.1683 6.80588 17.3625 6 16.3683 6C15.3742 6 14.5684 6.80588 14.5684 7.79999C14.5684 8.7941 15.3742 9.60001 16.3683 9.60001Z" stroke="#292D32" stroke-width="1.5" stroke-linecap="round" stroke-linejoin="round"/>
<path d="M8.04834 13.8001C8.31834 12.7501 9.27833 11.9701 10.4083 11.9801L12.4683 11.9901C14.0383 12.0001 15.3783 10.9901 15.8683 9.58008" stroke="#292D32" stroke-width="1.5" stroke-linecap="round" stroke-linejoin="round"/>
<path d="M9.16846 2H15.1685C20.1685 2 22.1685 4 22.1685 9V15C22.1685 20 20.1685 22 15.1685 22H9.16846C4.16846 22 2.16846 20 2.16846 15V9C2.16846 4 4.16846 2 9.16846 2Z" stroke="#292D32" stroke-width="1.5" stroke-linecap="round" stroke-linejoin="round"/>
</svg>
