<svg width="21" height="20" viewBox="0 0 21 20" fill="none" xmlns="http://www.w3.org/2000/svg">
<path d="M2.96346 5.05613C2.96346 3.80713 3.97546 2.79513 5.22446 2.79413H6.25346C6.85046 2.79413 7.42246 2.55713 7.84646 2.13713L8.56546 1.41713C9.44646 0.531134 10.8785 0.527134 11.7645 1.40813L11.7655 1.40913L11.7745 1.41713L12.4945 2.13713C12.9185 2.55813 13.4905 2.79413 14.0875 2.79413H15.1155C16.3645 2.79413 17.3775 3.80613 17.3775 5.05613V6.08313C17.3775 6.68013 17.6135 7.25313 18.0345 7.67713L18.7545 8.39713C19.6405 9.27813 19.6455 10.7101 18.7645 11.5961L18.7635 11.5971L18.7545 11.6061L18.0345 12.3261C17.6135 12.7491 17.3775 13.3211 17.3775 13.9181V14.9471C17.3775 16.1961 16.3655 17.2081 15.1165 17.2081H15.1155H14.0855C13.4885 17.2081 12.9155 17.4451 12.4925 17.8661L11.7725 18.5851C10.8925 19.4711 9.46146 19.4761 8.57546 18.5971C8.57446 18.5961 8.57346 18.5951 8.57246 18.5941L8.56346 18.5851L7.84446 17.8661C7.42146 17.4451 6.84846 17.2091 6.25146 17.2081H5.22446C3.97546 17.2081 2.96346 16.1961 2.96346 14.9471V13.9161C2.96346 13.3191 2.72646 12.7471 2.30546 12.3241L1.58646 11.6041C0.700465 10.7241 0.695465 9.29313 1.57546 8.40713C1.57546 8.40613 1.57646 8.40513 1.57746 8.40413L1.58646 8.39513L2.30546 7.67513C2.72646 7.25113 2.96346 6.67913 2.96346 6.08113V5.05613" stroke="#212121" stroke-width="1.5" stroke-linecap="round" stroke-linejoin="round"/>
<path d="M14.3323 10.8223C10.3323 10.8223 9.83228 8.32227 9.83228 5.82227C7.83228 5.82227 5.83228 9.07227 7.83228 11.8223C9.83228 14.5723 14.3323 12.8223 14.3323 10.8223Z" stroke="#212121" stroke-width="1.5" stroke-miterlimit="10" stroke-linecap="round" stroke-linejoin="round"/>
</svg>
