<svg width="19" height="17" viewBox="0 0 19 17" fill="none" xmlns="http://www.w3.org/2000/svg">
<path fill-rule="evenodd" clip-rule="evenodd" d="M11.4279 3.70354C11.4279 3.41206 11.6641 3.17578 11.9556 3.17578H17.629C17.9204 3.17578 18.1567 3.41206 18.1567 3.70354C18.1567 3.99501 17.9204 4.23129 17.629 4.23129H11.9556C11.6641 4.23129 11.4279 3.99501 11.4279 3.70354Z" fill="white"/>
<path fill-rule="evenodd" clip-rule="evenodd" d="M11.1644 10.3005C11.1644 10.009 11.4007 9.77271 11.6922 9.77271H17.3655C17.657 9.77271 17.8933 10.009 17.8933 10.3005C17.8933 10.5919 17.657 10.8282 17.3655 10.8282H11.6922C11.4007 10.8282 11.1644 10.5919 11.1644 10.3005Z" fill="white"/>
<path fill-rule="evenodd" clip-rule="evenodd" d="M11.1644 13.0712C11.1644 12.7797 11.4007 12.5435 11.6922 12.5435H17.3655C17.657 12.5435 17.8933 12.7797 17.8933 13.0712C17.8933 13.3627 17.657 13.599 17.3655 13.599H11.6922C11.4007 13.599 11.1644 13.3627 11.1644 13.0712Z" fill="white"/>
<path fill-rule="evenodd" clip-rule="evenodd" d="M1.56287 3.70354C1.56287 3.41206 1.79915 3.17578 2.09062 3.17578H7.76398C8.05545 3.17578 8.29173 3.41206 8.29173 3.70354C8.29173 3.99501 8.05545 4.23129 7.76398 4.23129H2.09062C1.79915 4.23129 1.56287 3.99501 1.56287 3.70354Z" fill="white"/>
<path fill-rule="evenodd" clip-rule="evenodd" d="M4.99321 7.00195C4.70174 7.00195 4.46545 6.76567 4.46545 6.4742V0.800841C4.46545 0.50937 4.70174 0.273087 4.99321 0.273087C5.28468 0.273087 5.52096 0.50937 5.52096 0.800841V6.4742C5.52096 6.76567 5.28468 7.00195 4.99321 7.00195Z" fill="white"/>
<path fill-rule="evenodd" clip-rule="evenodd" d="M2.48888 9.07704C2.69498 8.87094 3.02914 8.87094 3.23524 9.07704L7.24691 13.0887C7.45301 13.2948 7.45301 13.629 7.24691 13.8351C7.04081 14.0412 6.70665 14.0412 6.50055 13.8351L2.48888 9.82339C2.28278 9.61729 2.28278 9.28314 2.48888 9.07704Z" fill="white"/>
<path fill-rule="evenodd" clip-rule="evenodd" d="M2.58229 13.8351C2.37618 13.629 2.37618 13.2948 2.58229 13.0887L6.59395 9.07707C6.80006 8.87096 7.13421 8.87096 7.34031 9.07707C7.54641 9.28317 7.54641 9.61732 7.34031 9.82342L3.32864 13.8351C3.12254 14.0412 2.78839 14.0412 2.58229 13.8351Z" fill="white"/>
</svg>
