<svg width="16" height="16" viewBox="0 0 16 16" fill="none" xmlns="http://www.w3.org/2000/svg">
<path d="M3 13.5V2C3 1.44772 3.44772 1 4 1H10.0858C10.351 1 10.6054 1.10536 10.7929 1.29289L13.7071 4.20711C13.8946 4.39464 14 4.649 14 4.91421V13.5C14 14.0523 13.5523 14.5 13 14.5H4C3.44772 14.5 3 14.0523 3 13.5Z" stroke="white"/>
<path d="M7.18052 11.5C7.05751 11.5 6.95757 11.4654 6.88069 11.3963C6.80381 11.3225 6.7423 11.2118 6.69617 11.0643L5.53143 7.13624C5.48146 6.96104 5.49107 6.8112 5.56026 6.68672C5.6333 6.56224 5.75823 6.5 5.93506 6.5C6.05807 6.5 6.15224 6.53458 6.21759 6.60373C6.28678 6.67289 6.34252 6.78124 6.38481 6.92877L7.3362 10.3243H7.08826L8.09155 6.93568C8.13768 6.78815 8.19342 6.67981 8.25877 6.61065C8.32796 6.53688 8.4183 6.5 8.52977 6.5C8.6374 6.5 8.7239 6.53688 8.78924 6.61065C8.85459 6.67981 8.91033 6.79046 8.95646 6.9426L9.91362 10.3243H9.70028L10.669 6.92877C10.7074 6.78585 10.7612 6.67981 10.8304 6.61065C10.8996 6.53688 10.9938 6.5 11.113 6.5C11.2629 6.5 11.3724 6.56224 11.4416 6.68672C11.5108 6.8112 11.5185 6.96104 11.4647 7.13624L10.2884 11.0712C10.2461 11.2142 10.1885 11.3225 10.1154 11.3963C10.0424 11.4654 9.94245 11.5 9.8156 11.5C9.69259 11.5 9.59457 11.4654 9.52153 11.3963C9.44849 11.3225 9.38891 11.2118 9.34278 11.0643L8.43175 7.97303H8.57013L7.64757 11.0712C7.60144 11.2142 7.54186 11.3225 7.46882 11.3963C7.39963 11.4654 7.30353 11.5 7.18052 11.5Z" fill="white"/>
</svg>
