<svg width="16" height="16" viewBox="0 0 16 16" fill="none" xmlns="http://www.w3.org/2000/svg">
<path d="M11.25 11.5V4.5C11.2498 4.36744 11.1971 4.24035 11.1034 4.14661C11.0097 4.05288 10.8826 4.00015 10.75 4H5.25C5.11744 4.00015 4.99035 4.05288 4.89661 4.14661C4.80288 4.24035 4.75015 4.36744 4.75 4.5V11.5C4.75015 11.6326 4.80288 11.7597 4.89661 11.8534C4.99035 11.9471 5.11744 11.9998 5.25 12H10.75C10.8826 11.9998 11.0097 11.9471 11.1034 11.8534C11.1971 11.7597 11.2498 11.6326 11.25 11.5ZM5.25 4.5H10.75L10.7504 11.5H5.25V4.5Z" fill="white"/>
<path d="M8 6.5C8.14834 6.5 8.29334 6.45601 8.41668 6.3736C8.54001 6.29119 8.63614 6.17406 8.69291 6.03701C8.74968 5.89997 8.76453 5.74917 8.73559 5.60368C8.70665 5.4582 8.63522 5.32456 8.53033 5.21967C8.42544 5.11478 8.2918 5.04335 8.14632 5.01441C8.00083 4.98547 7.85003 5.00032 7.71299 5.05709C7.57594 5.11386 7.45881 5.20999 7.3764 5.33332C7.29399 5.45666 7.25 5.60166 7.25 5.75C7.25022 5.94885 7.3293 6.13949 7.46991 6.28009C7.61051 6.4207 7.80115 6.49978 8 6.5ZM8 5.5C8.04945 5.5 8.09778 5.51466 8.13889 5.54213C8.18 5.5696 8.21205 5.60865 8.23097 5.65433C8.24989 5.70001 8.25484 5.75028 8.2452 5.79877C8.23555 5.84727 8.21174 5.89181 8.17678 5.92678C8.14181 5.96174 8.09727 5.98555 8.04877 5.9952C8.00028 6.00484 7.95001 5.99989 7.90433 5.98097C7.85865 5.96205 7.8196 5.93001 7.79213 5.88889C7.76466 5.84778 7.75 5.79945 7.75 5.75C7.75007 5.68372 7.77643 5.62017 7.8233 5.5733C7.87017 5.52643 7.93372 5.50007 8 5.5Z" fill="white"/>
<path d="M9.125 9.5H9V7.125C8.99989 7.02558 8.96035 6.93026 8.89005 6.85995C8.81974 6.78965 8.72442 6.75011 8.625 6.75H7.125C7.02558 6.75011 6.93026 6.78965 6.85995 6.85995C6.78965 6.93026 6.75011 7.02558 6.75 7.125V7.875C6.75011 7.97442 6.78965 8.06974 6.85995 8.14005C6.93026 8.21035 7.02558 8.24989 7.125 8.25H7.5V9.5H7.125C7.02558 9.50011 6.93026 9.53965 6.85995 9.60995C6.78965 9.68026 6.75011 9.77558 6.75 9.875V10.625C6.75011 10.7244 6.78965 10.8197 6.85995 10.89C6.93026 10.9603 7.02558 10.9999 7.125 11H9.125C9.22442 10.9999 9.31974 10.9603 9.39005 10.89C9.46035 10.8197 9.49989 10.7244 9.5 10.625V9.875C9.49989 9.77558 9.46035 9.68026 9.39005 9.60995C9.31974 9.53965 9.22442 9.50011 9.125 9.5ZM9 10.5H7.25V10H7.75C7.78283 10 7.81535 9.99355 7.84568 9.98099C7.87602 9.96843 7.90358 9.95001 7.9268 9.9268C7.95001 9.90358 7.96843 9.87602 7.98099 9.84568C7.99355 9.81535 8.00001 9.78283 8 9.75V8C8.00001 7.96717 7.99355 7.93465 7.98099 7.90432C7.96843 7.87398 7.95001 7.84642 7.9268 7.8232C7.90358 7.79999 7.87602 7.78157 7.84568 7.76901C7.81535 7.75645 7.78283 7.74999 7.75 7.75H7.25V7.25H8.5V9.75C8.49999 9.78283 8.50645 9.81535 8.51901 9.84568C8.53157 9.87602 8.54999 9.90358 8.5732 9.9268C8.59642 9.95001 8.62398 9.96843 8.65432 9.98099C8.68465 9.99355 8.71717 10 8.75 10H9V10.5Z" fill="white"/>
<path d="M1 6.75006C1.1546 6.74958 1.30526 6.70127 1.4313 6.61174C1.55734 6.52222 1.65257 6.39588 1.70394 6.25006H2.11621L2.542 6.88873C2.56483 6.92298 2.59575 6.95106 2.63204 6.97049C2.66833 6.98991 2.70885 7.00007 2.75 7.00006H3.5V6.50006H2.88379L2.458 5.86139C2.43518 5.82714 2.40425 5.79906 2.36797 5.77963C2.33168 5.76021 2.29116 5.75005 2.25 5.75006H1.70394C1.65787 5.62079 1.57716 5.50666 1.47062 5.42016C1.36408 5.33365 1.23582 5.27809 1.09984 5.25955C0.963863 5.24101 0.825406 5.2602 0.699597 5.31502C0.573788 5.36985 0.465467 5.4582 0.386472 5.57041C0.307477 5.68263 0.260846 5.81441 0.251674 5.95134C0.242502 6.08827 0.271143 6.22508 0.334466 6.34683C0.39779 6.46859 0.493359 6.57059 0.610733 6.6417C0.728106 6.71282 0.862768 6.7503 1 6.75006ZM1 5.75006C1.04945 5.75006 1.09778 5.76472 1.1389 5.79219C1.18001 5.81966 1.21205 5.85871 1.23097 5.90439C1.24989 5.95007 1.25485 6.00034 1.2452 6.04883C1.23555 6.09733 1.21174 6.14187 1.17678 6.17684C1.14182 6.2118 1.09727 6.23561 1.04878 6.24526C1.00028 6.2549 0.950014 6.24995 0.904332 6.23103C0.858651 6.21211 0.819606 6.18006 0.792136 6.13895C0.764665 6.09784 0.750003 6.0495 0.750003 6.00006C0.750069 5.93378 0.77643 5.87023 0.823299 5.82336C0.870169 5.77649 0.933719 5.75013 1 5.75006Z" fill="white"/>
<path d="M1.5 7.25001C1.36237 7.24942 1.22723 7.28673 1.10938 7.35783C0.991536 7.42893 0.895527 7.53108 0.831869 7.65311C0.768211 7.77514 0.739359 7.91233 0.748472 8.04966C0.757586 8.18699 0.804313 8.31917 0.883538 8.43171C0.962762 8.54426 1.07143 8.63283 1.19764 8.68774C1.32384 8.74264 1.46273 8.76176 1.59907 8.743C1.73542 8.72423 1.86398 8.66831 1.97066 8.58136C2.07735 8.4944 2.15805 8.37977 2.20393 8.25001H4.25V7.75001H2.20393C2.15257 7.60419 2.05733 7.47785 1.93129 7.38832C1.80525 7.2988 1.65459 7.25048 1.5 7.25001ZM1.5 8.25001C1.45055 8.25001 1.40222 8.23534 1.36111 8.20787C1.31999 8.1804 1.28795 8.14136 1.26903 8.09568C1.25011 8.05 1.24516 7.99973 1.2548 7.95123C1.26445 7.90274 1.28826 7.85819 1.32322 7.82323C1.35818 7.78827 1.40273 7.76446 1.45123 7.75481C1.49972 7.74516 1.54999 7.75011 1.59567 7.76904C1.64135 7.78796 1.6804 7.82 1.70787 7.86111C1.73534 7.90223 1.75 7.95056 1.75 8.00001C1.74993 8.06629 1.72357 8.12984 1.6767 8.17671C1.62983 8.22358 1.56628 8.24994 1.5 8.25001Z" fill="white"/>
<path d="M1 10.75C1.1546 10.7495 1.30526 10.7012 1.4313 10.6117C1.55734 10.5222 1.65257 10.3958 1.70394 10.25H2.25C2.29116 10.25 2.33168 10.2398 2.36797 10.2204C2.40425 10.201 2.43518 10.1729 2.458 10.1387L2.88379 9.5H3.5V9H2.75C2.70885 8.99999 2.66833 9.01015 2.63204 9.02957C2.59575 9.049 2.56483 9.07708 2.542 9.11133L2.11621 9.75H1.70394C1.65787 9.62073 1.57716 9.5066 1.47062 9.4201C1.36408 9.33359 1.23582 9.27803 1.09984 9.25949C0.963863 9.24095 0.825406 9.26014 0.699597 9.31496C0.573788 9.36979 0.465467 9.45814 0.386472 9.57036C0.307477 9.68258 0.260846 9.81435 0.251674 9.95128C0.242502 10.0882 0.271143 10.225 0.334466 10.3468C0.39779 10.4685 0.493359 10.5705 0.610733 10.6416C0.728106 10.7128 0.862768 10.7502 1 10.75ZM1 9.75C1.04945 9.75 1.09778 9.76466 1.1389 9.79213C1.18001 9.8196 1.21205 9.85865 1.23097 9.90433C1.24989 9.95001 1.25485 10.0003 1.2452 10.0488C1.23555 10.0973 1.21174 10.1418 1.17678 10.1768C1.14182 10.2117 1.09727 10.2355 1.04878 10.2452C1.00028 10.2548 0.950014 10.2499 0.904332 10.231C0.858651 10.212 0.819606 10.18 0.792136 10.1389C0.764665 10.0978 0.750003 10.0494 0.750003 10C0.750069 9.93372 0.77643 9.87017 0.823299 9.8233C0.870169 9.77643 0.933719 9.75007 1 9.75Z" fill="white"/>
<path d="M15 9.25C14.8454 9.25048 14.6947 9.29879 14.5687 9.38832C14.4427 9.47784 14.3474 9.60418 14.2961 9.75H13.8838L13.458 9.11133C13.4352 9.07708 13.4042 9.049 13.368 9.02957C13.3317 9.01015 13.2912 8.99999 13.25 9H12.5V9.5H13.1162L13.542 10.1387C13.5648 10.1729 13.5958 10.201 13.632 10.2204C13.6683 10.2398 13.7088 10.25 13.75 10.25H14.2961C14.3421 10.3793 14.4229 10.4934 14.5294 10.5799C14.6359 10.6664 14.7642 10.722 14.9002 10.7405C15.0362 10.759 15.1746 10.7398 15.3004 10.685C15.4262 10.6302 15.5345 10.5418 15.6135 10.4296C15.6925 10.3174 15.7392 10.1856 15.7483 10.0487C15.7575 9.91178 15.7289 9.77497 15.6655 9.65322C15.6022 9.53147 15.5066 9.42946 15.3893 9.35835C15.2719 9.28724 15.1372 9.24976 15 9.25ZM15 10.25C14.9506 10.25 14.9022 10.2353 14.8611 10.2079C14.82 10.1804 14.788 10.1414 14.769 10.0957C14.7501 10.05 14.7452 9.99972 14.7548 9.95123C14.7645 9.90273 14.7883 9.85819 14.8232 9.82322C14.8582 9.78826 14.9027 9.76445 14.9512 9.7548C14.9997 9.74516 15.05 9.75011 15.0957 9.76903C15.1414 9.78795 15.1804 9.82 15.2079 9.86111C15.2353 9.90222 15.25 9.95055 15.25 10C15.2499 10.0663 15.2236 10.1298 15.1767 10.1767C15.1298 10.2236 15.0663 10.2499 15 10.25Z" fill="white"/>
<path d="M14.5 8.74999C14.6376 8.75058 14.7728 8.71327 14.8906 8.64217C15.0085 8.57107 15.1045 8.46892 15.1681 8.34689C15.2318 8.22486 15.2606 8.08767 15.2515 7.95034C15.2424 7.81301 15.1957 7.68083 15.1165 7.56829C15.0372 7.45574 14.9286 7.36717 14.8024 7.31226C14.6762 7.25736 14.5373 7.23824 14.4009 7.257C14.2646 7.27577 14.136 7.33169 14.0293 7.41864C13.9226 7.5056 13.8419 7.62023 13.7961 7.74999H11.75V8.24999H13.7961C13.8474 8.39581 13.9427 8.52215 14.0687 8.61168C14.1947 8.7012 14.3454 8.74952 14.5 8.74999ZM14.5 7.74999C14.5494 7.74999 14.5978 7.76466 14.6389 7.79213C14.68 7.8196 14.712 7.85864 14.731 7.90432C14.7499 7.95 14.7548 8.00027 14.7452 8.04877C14.7355 8.09726 14.7117 8.14181 14.6768 8.17677C14.6418 8.21173 14.5973 8.23554 14.5488 8.24519C14.5003 8.25484 14.45 8.24989 14.4043 8.23096C14.3586 8.21204 14.3196 8.18 14.2921 8.13889C14.2647 8.09777 14.25 8.04944 14.25 7.99999C14.2501 7.93371 14.2764 7.87016 14.3233 7.82329C14.3702 7.77642 14.4337 7.75006 14.5 7.74999Z" fill="white"/>
<path d="M15 5.25C14.8454 5.25048 14.6947 5.29879 14.5687 5.38832C14.4427 5.47784 14.3474 5.60419 14.2961 5.75H13.75C13.7088 5.75 13.6683 5.76015 13.632 5.77958C13.5958 5.799 13.5648 5.82708 13.542 5.86133L13.1162 6.5H12.5V7H13.25C13.2912 7.00001 13.3317 6.98985 13.368 6.97043C13.4042 6.95101 13.4352 6.92292 13.458 6.88867L13.8838 6.25H14.2961C14.3421 6.37927 14.4229 6.49339 14.5294 6.5799C14.6359 6.6664 14.7642 6.72196 14.9002 6.7405C15.0362 6.75904 15.1746 6.73985 15.3004 6.68502C15.4262 6.6302 15.5345 6.54185 15.6135 6.42963C15.6925 6.31741 15.7392 6.18564 15.7483 6.04871C15.7575 5.91178 15.7289 5.77497 15.6655 5.65322C15.6022 5.53147 15.5066 5.42946 15.3893 5.35835C15.2719 5.28724 15.1372 5.24976 15 5.25ZM15 6.25C14.9506 6.25 14.9022 6.23534 14.8611 6.20787C14.82 6.1804 14.788 6.14135 14.769 6.09567C14.7501 6.04999 14.7452 5.99972 14.7548 5.95123C14.7645 5.90273 14.7883 5.85819 14.8232 5.82322C14.8582 5.78826 14.9027 5.76445 14.9512 5.7548C14.9997 5.74516 15.05 5.75011 15.0957 5.76903C15.1414 5.78795 15.1804 5.82 15.2079 5.86111C15.2353 5.90222 15.25 5.95056 15.25 6C15.2499 6.06628 15.2236 6.12983 15.1767 6.1767C15.1298 6.22357 15.0663 6.24993 15 6.25Z" fill="white"/>
<path d="M8.5 1.5H7.5V2H8.5V1.5Z" fill="white"/>
<path d="M14 4.75V3.25C13.9995 2.78604 13.8149 2.34123 13.4868 2.01316C13.1588 1.68509 12.714 1.50054 12.25 1.5H9V2H12.25C12.5814 2.00039 12.8991 2.13221 13.1335 2.36655C13.3678 2.60088 13.4996 2.9186 13.5 3.25V4.75H14Z" fill="white"/>
<path d="M7 2V1.5H3.75C3.28604 1.50054 2.84123 1.68509 2.51316 2.01316C2.18509 2.34123 2.00054 2.78604 2 3.25V4.75H2.5V3.25C2.50039 2.9186 2.63221 2.60088 2.86655 2.36655C3.10088 2.13221 3.4186 2.00039 3.75 2H7Z" fill="white"/>
<path d="M8.5 14H7.5V14.5H8.5V14Z" fill="white"/>
<path d="M2 11.25V12.75C2.00054 13.214 2.18509 13.6588 2.51316 13.9868C2.84123 14.3149 3.28604 14.4995 3.75 14.5H7V14H3.75C3.4186 13.9996 3.10088 13.8678 2.86655 13.6335C2.63221 13.3991 2.50039 13.0814 2.5 12.75V11.25H2Z" fill="white"/>
<path d="M14 12.75V11.25H13.5V12.75C13.4996 13.0814 13.3678 13.3991 13.1335 13.6335C12.8991 13.8678 12.5814 13.9996 12.25 14H9V14.5H12.25C12.714 14.4995 13.1588 14.3149 13.4868 13.9868C13.8149 13.6588 13.9995 13.214 14 12.75Z" fill="white"/>
<path d="M4.25 6.5H3.75V7H4.25V6.5Z" fill="white"/>
<path d="M4.25 9H3.75V9.5H4.25V9Z" fill="white"/>
<path d="M12.25 9H11.75V9.5H12.25V9Z" fill="white"/>
<path d="M12.25 6.5H11.75V7H12.25V6.5Z" fill="white"/>
</svg>
