<svg width="16" height="16" viewBox="0 0 16 16" fill="none" xmlns="http://www.w3.org/2000/svg">
<path d="M4.25 12.6562V2C4.25 1.44772 4.69772 1 5.25 1H10.867C11.1323 1 11.3866 1.10536 11.5741 1.29289L14.2696 3.98836C14.4571 4.17589 14.5625 4.43025 14.5625 4.69546V12.6562C14.5625 13.2085 14.1148 13.6562 13.5625 13.6562H5.25C4.69772 13.6562 4.25 13.2085 4.25 12.6562Z" stroke="white"/>
<line x1="6.625" y1="8" x2="8.4375" y2="8" stroke="white" stroke-linecap="round"/>
<line x1="6.625" y1="10.8125" x2="10.3125" y2="10.8125" stroke="white" stroke-linecap="round"/>
<path fill-rule="evenodd" clip-rule="evenodd" d="M1.90625 6.625C2.16513 6.625 2.375 6.83487 2.375 7.09375L2.375 15.5312C2.375 15.7901 2.16513 16 1.90625 16C1.64737 16 1.4375 15.7901 1.4375 15.5312L1.4375 7.09375C1.4375 6.83487 1.64737 6.625 1.90625 6.625Z" fill="white"/>
<path fill-rule="evenodd" clip-rule="evenodd" d="M9.875 15.5312C9.875 15.7901 9.66513 16 9.40625 16L1.90625 16C1.64737 16 1.4375 15.7901 1.4375 15.5312C1.4375 15.2724 1.64737 15.0625 1.90625 15.0625L9.40625 15.0625C9.66513 15.0625 9.875 15.2724 9.875 15.5312Z" fill="white"/>
</svg>
