<svg width="16" height="16" viewBox="0 0 16 16" fill="none" xmlns="http://www.w3.org/2000/svg">
<path fill-rule="evenodd" clip-rule="evenodd" d="M6.25659 1.45177C6.94714 0.853293 7.96876 0.840437 8.67415 1.42135L9.76132 2.31667C9.88444 2.41806 10.035 2.48048 10.1937 2.49596L11.3226 2.6061C12.2821 2.69971 13.0139 3.50634 13.0139 4.47041V5.36502C13.0139 5.58265 13.1023 5.79095 13.2587 5.94221L13.9247 6.58596C14.6524 7.28944 14.6897 8.44381 14.0088 9.19275L13.2227 10.0575C13.0883 10.2053 13.0139 10.3978 13.0139 10.5975V11.6128C13.0139 12.6135 12.2274 13.4374 11.2278 13.4839L10.1445 13.5343C9.94471 13.5436 9.75558 13.6272 9.61415 13.7686L8.91965 14.4631C8.18814 15.1946 7.00212 15.1946 6.27061 14.4631L5.33403 13.5265C5.18348 13.376 4.97929 13.2914 4.76638 13.2914H3.89046C2.90773 13.2914 2.09208 12.5319 2.02206 11.5517L1.94664 10.4958C1.93254 10.2983 1.84594 10.113 1.70351 9.97548L1.06475 9.35875C0.337098 8.65619 0.298628 7.50283 0.977853 6.75334L1.73894 5.91353C1.85888 5.78117 1.93126 5.6126 1.94462 5.43448L2.03053 4.28896C2.09629 3.41214 2.76309 2.69908 3.63354 2.57473L4.98906 2.38108C5.14168 2.35928 5.2848 2.29399 5.4013 2.19302L6.25659 1.45177ZM7.99371 2.24761C7.69139 1.99864 7.25356 2.00415 6.95761 2.26064L6.10232 3.00189C5.83048 3.23749 5.49655 3.38983 5.14044 3.4407L3.78491 3.63434C3.41186 3.68764 3.12609 3.99324 3.09791 4.36902L3.012 5.51454C2.98083 5.93014 2.81194 6.32348 2.53207 6.6323L1.77099 7.47212C1.47989 7.79333 1.49638 8.28762 1.80823 8.58872L2.44698 9.20545C2.77934 9.52634 2.98138 9.95873 3.0143 10.4195L3.08972 11.4754C3.11972 11.8955 3.46929 12.221 3.89046 12.221H4.76638C5.26317 12.221 5.73962 12.4184 6.0909 12.7696L7.02748 13.7062C7.34098 14.0197 7.84928 14.0197 8.16278 13.7062L8.85728 13.0117C9.18728 12.6817 9.62859 12.4868 10.0948 12.4651L11.178 12.4147C11.6064 12.3948 11.9435 12.0417 11.9435 11.6128V10.5975C11.9435 10.1315 12.1172 9.6823 12.4307 9.3375L13.2168 8.47274C13.5086 8.15177 13.4926 7.65704 13.1807 7.35555L12.5148 6.7118C12.1497 6.35886 11.9435 5.87282 11.9435 5.36502V4.47041C11.9435 4.05723 11.6299 3.71154 11.2187 3.67142L10.0898 3.56128C9.71938 3.52514 9.36815 3.3795 9.08088 3.14292L7.99371 2.24761Z" fill="white"/>
<path fill-rule="evenodd" clip-rule="evenodd" d="M7.59524 9.54467C8.44502 9.54467 9.13391 8.85579 9.13391 8.00601C9.13391 7.15623 8.44502 6.46735 7.59524 6.46735C6.74546 6.46735 6.05658 7.15623 6.05658 8.00601C6.05658 8.85579 6.74546 9.54467 7.59524 9.54467ZM7.59524 10.615C9.03618 10.615 10.2043 9.44694 10.2043 8.00601C10.2043 6.56508 9.03618 5.39697 7.59524 5.39697C6.15431 5.39697 4.98621 6.56508 4.98621 8.00601C4.98621 9.44694 6.15431 10.615 7.59524 10.615Z" fill="white"/>
</svg>
