<svg width="16" height="16" viewBox="0 0 16 16" fill="none" xmlns="http://www.w3.org/2000/svg">
<path fill-rule="evenodd" clip-rule="evenodd" d="M0.799302 15.1027C0.582091 14.8832 0.583925 14.5292 0.803399 14.312L14.3618 0.893405C14.5813 0.676195 14.9353 0.678028 15.1525 0.897502C15.3697 1.11698 15.3679 1.47098 15.1484 1.68819L1.58999 15.1068C1.37052 15.324 1.01651 15.3222 0.799302 15.1027Z" fill="white"/>
<path fill-rule="evenodd" clip-rule="evenodd" d="M8.46497 11.4944C8.46497 11.1856 8.71529 10.9353 9.02408 10.9353H15.0345C15.3433 10.9353 15.5936 11.1856 15.5936 11.4944C15.5936 11.8032 15.3433 12.0535 15.0345 12.0535H9.02408C8.71529 12.0535 8.46497 11.8032 8.46497 11.4944Z" fill="white"/>
<path fill-rule="evenodd" clip-rule="evenodd" d="M8.46521 14.4297C8.46521 14.1209 8.71553 13.8706 9.02432 13.8706H15.0347C15.3435 13.8706 15.5939 14.1209 15.5939 14.4297C15.5939 14.7385 15.3435 14.9888 15.0347 14.9888H9.02432C8.71553 14.9888 8.46521 14.7385 8.46521 14.4297Z" fill="white"/>
<path fill-rule="evenodd" clip-rule="evenodd" d="M0.637817 4.36551C0.637817 4.05672 0.888139 3.8064 1.19693 3.8064H7.20735C7.51614 3.8064 7.76646 4.05672 7.76646 4.36551C7.76646 4.67429 7.51614 4.92462 7.20735 4.92462H1.19693C0.888139 4.92462 0.637817 4.67429 0.637817 4.36551Z" fill="white"/>
<path fill-rule="evenodd" clip-rule="evenodd" d="M4.27212 7.86011C3.96333 7.86011 3.71301 7.60979 3.71301 7.301L3.71301 1.29057C3.71301 0.981786 3.96333 0.731464 4.27212 0.731464C4.58091 0.731464 4.83123 0.981786 4.83123 1.29057V7.301C4.83123 7.60979 4.58091 7.86011 4.27212 7.86011Z" fill="white"/>
</svg>
