<svg width="16" height="16" viewBox="0 0 16 16" fill="none" xmlns="http://www.w3.org/2000/svg">
<path fill-rule="evenodd" clip-rule="evenodd" d="M5.23894 1.13274H1.13274L1.13274 5.23894H5.23894V1.13274ZM1.13274 0C0.507147 0 0 0.507146 0 1.13274V5.23894C0 5.86453 0.507146 6.37168 1.13274 6.37168H5.23894C5.86453 6.37168 6.37168 5.86453 6.37168 5.23894V1.13274C6.37168 0.507147 5.86453 0 5.23894 0H1.13274Z" fill="white"/>
<path fill-rule="evenodd" clip-rule="evenodd" d="M14.3009 1.13274H10.1948L10.1948 5.23894H14.3009V1.13274ZM10.1948 0C9.56916 0 9.06201 0.507146 9.06201 1.13274V5.23894C9.06201 5.86453 9.56916 6.37168 10.1948 6.37168H14.3009C14.9265 6.37168 15.4337 5.86453 15.4337 5.23894V1.13274C15.4337 0.507147 14.9265 0 14.3009 0H10.1948Z" fill="white"/>
<path fill-rule="evenodd" clip-rule="evenodd" d="M5.23894 10.1948H1.13274L1.13274 14.3009H5.23894V10.1948ZM1.13274 9.06201C0.507147 9.06201 0 9.56916 0 10.1948V14.3009C0 14.9265 0.507146 15.4337 1.13274 15.4337H5.23894C5.86453 15.4337 6.37168 14.9265 6.37168 14.3009V10.1948C6.37168 9.56916 5.86453 9.06201 5.23894 9.06201H1.13274Z" fill="white"/>
<path fill-rule="evenodd" clip-rule="evenodd" d="M7.92926 8.49557C7.92926 8.18277 8.18283 7.9292 8.49563 7.9292H15.4337C15.7465 7.9292 16.0001 8.18277 16.0001 8.49557C16.0001 8.80837 15.7465 9.06194 15.4337 9.06194H8.49563C8.18283 9.06194 7.92926 8.80837 7.92926 8.49557Z" fill="white"/>
<path fill-rule="evenodd" clip-rule="evenodd" d="M7.92932 14.7256C7.92932 14.4128 8.18289 14.1592 8.49569 14.1592H15.4337C15.7465 14.1592 16.0001 14.4128 16.0001 14.7256C16.0001 15.0383 15.7465 15.2919 15.4337 15.2919H8.49569C8.18289 15.2919 7.92932 15.0383 7.92932 14.7256Z" fill="white"/>
<path fill-rule="evenodd" clip-rule="evenodd" d="M10.9027 11.7522C10.9027 11.4394 11.1563 11.1858 11.4691 11.1858L15.4337 11.1858C15.7465 11.1858 16.0001 11.4394 16.0001 11.7522C16.0001 12.065 15.7465 12.3185 15.4337 12.3185L11.4691 12.3185C11.1563 12.3185 10.9027 12.065 10.9027 11.7522Z" fill="white"/>
</svg>
