<svg width="18" height="18" viewBox="0 0 18 18" fill="none" xmlns="http://www.w3.org/2000/svg">
<path fill-rule="evenodd" clip-rule="evenodd" d="M0.876953 1.41314C0.876953 0.921772 1.27529 0.523438 1.76666 0.523438H8.39899C8.89036 0.523438 9.2887 0.921772 9.2887 1.41314V6.75137C9.2887 7.24274 8.89036 7.64107 8.39899 7.64107H1.76666C1.27529 7.64107 0.876953 7.24274 0.876953 6.75137V1.41314ZM1.76666 1.33226C1.72199 1.33226 1.68577 1.36847 1.68577 1.41314V6.75137C1.68577 6.79604 1.72199 6.83225 1.76666 6.83225H8.39899C8.44366 6.83225 8.47988 6.79604 8.47988 6.75137V1.41314C8.47988 1.36847 8.44366 1.33226 8.39899 1.33226H1.76666Z" fill="white"/>
<path fill-rule="evenodd" clip-rule="evenodd" d="M8.96509 10.7955C8.96509 10.3041 9.36342 9.90576 9.85479 9.90576H16.4871C16.9785 9.90576 17.3768 10.3041 17.3768 10.7955V16.1337C17.3768 16.6251 16.9785 17.0234 16.4871 17.0234H9.85479C9.36342 17.0234 8.96509 16.6251 8.96509 16.1337V10.7955ZM9.85479 10.7146C9.81012 10.7146 9.77391 10.7508 9.77391 10.7955V16.1337C9.77391 16.1784 9.81012 16.2146 9.85479 16.2146H16.4871C16.5318 16.2146 16.568 16.1784 16.568 16.1337V10.7955C16.568 10.7508 16.5318 10.7146 16.4871 10.7146H9.85479Z" fill="white"/>
<path fill-rule="evenodd" clip-rule="evenodd" d="M12.2813 7.64111C11.7899 7.64111 11.3916 7.24278 11.3916 6.75141L11.3916 1.41319C11.3916 0.921815 11.7899 0.523482 12.2813 0.523482L16.6489 0.523482C17.1403 0.523482 17.5386 0.921816 17.5386 1.41319L17.5386 6.75141C17.5386 7.24278 17.1403 7.64111 16.6489 7.64111L12.2813 7.64111ZM12.2004 6.75141C12.2004 6.79608 12.2366 6.83229 12.2813 6.83229L16.6489 6.83229C16.6936 6.83229 16.7298 6.79608 16.7298 6.75141L16.7298 1.41319C16.7298 1.36852 16.6936 1.3323 16.6489 1.3323L12.2813 1.3323C12.2366 1.3323 12.2004 1.36852 12.2004 1.41319L12.2004 6.75141Z" fill="white"/>
<path fill-rule="evenodd" clip-rule="evenodd" d="M1.60479 17.0234C1.11342 17.0234 0.715088 16.6251 0.715088 16.1337L0.715088 10.7955C0.715088 10.3041 1.11342 9.90581 1.60479 9.90581L5.97243 9.90581C6.4638 9.90581 6.86213 10.3041 6.86213 10.7955L6.86213 16.1337C6.86213 16.6251 6.4638 17.0234 5.97243 17.0234L1.60479 17.0234ZM1.52391 16.1337C1.52391 16.1784 1.56012 16.2146 1.60479 16.2146L5.97243 16.2146C6.0171 16.2146 6.05331 16.1784 6.05331 16.1337L6.05331 10.7955C6.05331 10.7508 6.0171 10.7146 5.97243 10.7146L1.60479 10.7146C1.56012 10.7146 1.52391 10.7508 1.52391 10.7955L1.52391 16.1337Z" fill="white"/>
</svg>
