<svg width="18" height="18" viewBox="0 0 18 18" fill="none" xmlns="http://www.w3.org/2000/svg">
<path d="M0.786676 15.0556C0.802929 14.63 0.931322 14.1817 1.15796 13.7589C1.38235 13.3402 1.70552 12.9435 2.09255 12.6114L9.51302 6.24485C9.28686 5.58146 9.23976 4.87223 9.37773 4.17875C9.53245 3.40109 9.91009 2.69414 10.4698 2.1344C11.2238 1.38036 12.2263 0.965088 13.2926 0.965088C13.7475 0.965088 14.195 1.04158 14.6226 1.19237C14.8237 1.26312 14.9719 1.42948 15.0191 1.63736C15.0663 1.84532 15.0043 2.05942 14.8537 2.20971L13.1353 3.92803L14.322 5.11468L16.0403 3.39639C16.1568 3.27988 16.3117 3.2157 16.4764 3.2157C16.5222 3.2157 16.5681 3.22083 16.6132 3.23109C16.8209 3.27851 16.987 3.4267 17.0576 3.62722C17.3045 4.32716 17.3515 5.08135 17.1936 5.80823C17.0314 6.5552 16.6587 7.23708 16.1157 7.78024C15.3618 8.53411 14.3594 8.94927 13.2931 8.94927C12.8593 8.94927 12.4189 8.8761 12.0057 8.73643L5.6387 16.1574C4.93616 16.9762 3.9873 17.4651 3.10053 17.4651C2.81398 17.4651 2.54263 17.4151 2.29433 17.3167C2.04206 17.217 1.81658 17.0689 1.62422 16.8765L1.3735 16.6258C0.965887 16.2184 0.762947 15.6754 0.786676 15.0556ZM1.85216 16.1471L2.10295 16.3979C2.22943 16.5244 2.37755 16.6217 2.54347 16.6873C2.71235 16.7542 2.89976 16.7882 3.10053 16.7882C3.79249 16.7882 4.54924 16.3876 5.12491 15.7167L11.6457 8.11642C11.7114 8.03981 11.8059 7.99832 11.9027 7.99832C11.9458 7.99832 11.9893 8.00655 12.0309 8.0236C12.4279 8.1863 12.8644 8.2723 13.2931 8.2723C14.1786 8.2723 15.011 7.92756 15.6369 7.30159C16.0879 6.85045 16.3974 6.2844 16.532 5.66456C16.6564 5.09218 16.6279 4.49954 16.45 3.9441L14.734 5.66012C14.6244 5.76977 14.4781 5.83016 14.322 5.83016C14.166 5.83016 14.0196 5.76977 13.91 5.66012L12.5899 4.33998C12.4803 4.23033 12.4199 4.08402 12.4199 3.92803C12.4199 3.77201 12.4803 3.6257 12.5899 3.51605L14.306 1.80003C13.9786 1.69519 13.6382 1.64206 13.2926 1.64206C12.4072 1.64206 11.5747 1.9869 10.9485 2.61306C9.99919 3.56253 9.71563 4.97787 10.2261 6.21881C10.2817 6.35388 10.2444 6.50937 10.1335 6.6045L2.53339 13.1251C2.20921 13.4033 1.93992 13.733 1.75464 14.0787C1.57633 14.4113 1.47553 14.7581 1.46318 15.0814C1.44685 15.5079 1.58135 15.8764 1.85216 16.1471Z" fill="white"/>
</svg>
