<svg width="44" height="44" viewBox="0 0 44 44" fill="none" xmlns="http://www.w3.org/2000/svg">
<g clip-path="url(#clip0_684_5903)" filter="url(#filter0_d_684_5903)">
<path d="M33.6538 21.9498C33.4662 21.8228 33.2112 21.8718 33.0842 22.0593L31.2638 24.7465C30.9048 24.4933 30.5072 24.2868 30.0775 24.1382L25.2074 22.4541C25.1316 22.4278 25.0807 22.3563 25.0807 22.2761V21.5778C25.0807 21.474 25.1652 21.3894 25.269 21.3894H27.2284C28.6734 21.3894 29.849 20.2138 29.849 18.7688V17.7225C29.849 17.6653 29.8956 17.6187 29.9527 17.6187H30.2616C30.7711 17.6187 31.1856 17.2042 31.1856 16.6947C31.1856 16.4577 31.096 16.2324 30.9333 16.0602L29.9003 14.9665C29.8673 14.9314 29.849 14.8855 29.849 14.8372V14.2361C29.849 13.4893 29.7192 12.7553 29.4631 12.0544C29.3853 11.8417 29.1499 11.7321 28.937 11.81C28.7242 11.8878 28.6148 12.1232 28.6926 12.336C28.9156 12.9463 29.0287 13.5856 29.0287 14.2361V14.8372C29.0287 15.0958 29.1265 15.3418 29.304 15.5298L30.337 16.6235C30.3553 16.6428 30.3654 16.6681 30.3654 16.6947C30.3654 16.7519 30.3188 16.7984 30.2616 16.7984H29.9528C29.4433 16.7984 29.0288 17.2129 29.0288 17.7225V18.1152H27.4238C27.1972 18.1152 27.0136 18.2988 27.0136 18.5253C27.0136 18.7519 27.1972 18.9355 27.4238 18.9355H29.0208C28.9364 19.8503 28.1649 20.5692 27.2284 20.5692H25.269C24.7129 20.5692 24.2604 21.0217 24.2604 21.5779V22.2761C24.2604 22.7059 24.5332 23.089 24.9394 23.2294L29.8095 24.9136C30.17 25.0383 30.5032 25.2124 30.8036 25.426L29.7016 27.0527H28.0013C27.5905 26.5911 27.1106 26.1383 26.5494 25.7068C26.0783 25.3446 25.4541 25.2827 24.9208 25.5455C24.4024 25.8007 24.0758 26.3107 24.0573 26.8846L23.7612 26.6695C23.8746 26.4972 23.9411 26.2915 23.9411 26.0702C23.9411 25.7466 23.799 25.4562 23.5749 25.2558V24.2792C23.799 24.0788 23.9411 23.7884 23.9411 23.4648C23.9411 23.1411 23.799 22.8507 23.5749 22.6503V21.6738C23.799 21.4733 23.9411 21.1829 23.9411 20.8593C23.9411 20.2562 23.4504 19.7655 22.8474 19.7655H22.0671C21.464 19.7655 20.9733 20.2562 20.9733 20.8593C20.9733 21.1829 21.1155 21.4733 21.3396 21.6738V22.6503C21.1154 22.8507 20.9733 23.1411 20.9733 23.4648C20.9733 23.7884 21.1155 24.0788 21.3396 24.2792V25.2558C21.1154 25.4562 20.9733 25.7466 20.9733 26.0702C20.9733 26.2915 21.0398 26.4972 21.1532 26.6695L20.8572 26.8846C20.8387 26.3107 20.512 25.8007 19.9936 25.5455C19.4602 25.2828 18.8361 25.3447 18.365 25.7069C15.2716 28.0854 14.6366 31.1106 14.5335 32.7021C14.5059 33.128 14.6574 33.5508 14.9491 33.8621C15.2409 34.1734 15.6531 34.352 16.0799 34.352H17.0784C17.3049 34.352 17.4885 34.1683 17.4885 33.9418C17.4885 33.7153 17.3049 33.5316 17.0784 33.5316H16.0798C15.8758 33.5316 15.6868 33.4498 15.5475 33.3011C15.4082 33.1525 15.3388 32.9586 15.352 32.7552C15.4462 31.3021 16.0278 28.5387 18.8649 26.3572C19.0899 26.1843 19.3764 26.1559 19.6311 26.2814C19.8862 26.4071 20.0385 26.6517 20.0385 26.9358V27.4793L17.9321 29.0097C17.6906 29.1851 17.5318 29.4442 17.4851 29.7391C17.4384 30.0339 17.5094 30.3293 17.6848 30.5708C17.8602 30.8123 18.1192 30.971 18.4141 31.0178C18.4733 31.0271 18.5326 31.0318 18.5914 31.0318C18.8254 31.0318 19.0529 30.9583 19.2459 30.818L20.0385 30.2422V32.8024C20.0385 33.2045 19.7114 33.5316 19.3093 33.5316H18.9924C18.7659 33.5316 18.5823 33.7152 18.5823 33.9417C18.5823 34.1683 18.7659 34.3519 18.9924 34.3519H19.3093C20.1637 34.3519 20.8589 33.6568 20.8589 32.8024V29.6462L22.4572 28.485L24.0555 29.6462V32.8024C24.0555 33.6568 24.7506 34.3518 25.605 34.3518H28.8345C29.2614 34.3518 29.6736 34.1733 29.9654 33.862C30.2571 33.5507 30.4086 33.1279 30.381 32.702C30.3075 31.5688 29.9642 29.7089 28.656 27.873H29.9192C30.0553 27.873 30.1825 27.8055 30.2588 27.6929L31.4234 25.9736C32.0749 26.6843 32.4603 27.6267 32.4603 28.6351V30.6406C32.4603 30.8672 32.6439 31.0508 32.8704 31.0508C33.097 31.0508 33.2806 30.8672 33.2806 30.6406V28.635C33.2806 27.3489 32.7619 26.1519 31.8939 25.279L33.7633 22.5194C33.8903 22.3319 33.8413 22.0769 33.6538 21.9498ZM22.067 20.5859H22.8473C22.9981 20.5859 23.1207 20.7085 23.1207 20.8593C23.1207 21.0101 22.9981 21.1327 22.8473 21.1327H22.067C21.9162 21.1327 21.7936 21.0101 21.7936 20.8593C21.7936 20.7085 21.9162 20.5859 22.067 20.5859ZM22.7544 21.953V22.371H22.1598V21.953H22.7544ZM22.067 23.1913H22.8473C22.9981 23.1913 23.1207 23.3139 23.1207 23.4647C23.1207 23.6155 22.9981 23.7382 22.8473 23.7382H22.067C21.9162 23.7382 21.7936 23.6155 21.7936 23.4647C21.7936 23.3139 21.9162 23.1913 22.067 23.1913ZM22.7544 24.5585V24.9764H22.1598V24.5585H22.7544ZM22.067 25.7967H22.8473C22.9981 25.7967 23.1207 25.9194 23.1207 26.0701C23.1207 26.2209 22.9981 26.3436 22.8473 26.3436H22.067C21.9162 26.3436 21.7936 26.2209 21.7936 26.0701C21.7936 25.9194 21.9162 25.7967 22.067 25.7967ZM22.8589 27.7628C22.6187 27.5882 22.2958 27.5882 22.0553 27.7628L18.7638 30.1543C18.6995 30.201 18.6209 30.2199 18.5425 30.2074C18.464 30.1949 18.3952 30.1527 18.3485 30.0884C18.3018 30.0242 18.2829 29.9456 18.2953 29.8672C18.3077 29.7888 18.35 29.7199 18.4142 29.6732L21.8896 27.1482C21.9475 27.1577 22.0064 27.1639 22.067 27.1639H22.8472C22.9077 27.1639 22.9667 27.1577 23.0246 27.1482L26.4828 29.6607C26.6179 29.7589 26.6595 29.9444 26.5754 30.0743C26.52 30.1599 26.4262 30.2111 26.3246 30.2111C26.2809 30.2111 26.2151 30.2012 26.1504 30.1542L22.8589 27.7628ZM29.5623 32.755C29.5754 32.9584 29.506 33.1523 29.3668 33.3009C29.2274 33.4496 29.0384 33.5314 28.8345 33.5314H25.6049C25.2028 33.5314 24.8757 33.2043 24.8757 32.8023V30.2421L25.6683 30.8179C25.8606 30.9576 26.0875 31.0314 26.3246 31.0314C26.7057 31.0314 27.0569 30.8403 27.2641 30.5199C27.5864 30.022 27.4548 29.353 26.9649 28.9971L24.8757 27.4792V26.9356C24.8757 26.6515 25.028 26.4069 25.2831 26.2812C25.3884 26.2294 25.499 26.2038 25.6085 26.2038C25.7641 26.2038 25.9173 26.2555 26.0494 26.357C28.8865 28.5385 29.4682 31.3019 29.5623 32.755Z" fill="white"/>
<path d="M32.8703 32.1445C32.6438 32.1445 32.4602 32.3281 32.4602 32.5547V34.9169C32.4602 35.0617 32.3423 35.1797 32.1974 35.1797H12.7167C12.5719 35.1797 12.4539 35.0618 12.4539 34.9169V28.6349C12.4539 26.9573 13.5192 25.4617 15.1047 24.9134L19.9749 23.2293C20.381 23.0888 20.6538 22.7057 20.6538 22.276V19.2779C20.6538 18.9703 20.5139 18.6821 20.2698 18.4871C18.9581 17.4393 18.2137 15.8765 18.2277 14.1994C18.2521 11.27 20.5636 8.90827 23.49 8.82263C24.5566 8.7914 25.5988 9.06943 26.5006 9.6267C27.0002 9.93552 27.443 10.326 27.8167 10.7873C27.9593 10.9633 28.2176 10.9904 28.3936 10.8478C28.5697 10.7052 28.5968 10.447 28.4542 10.2709C28.0223 9.73783 27.51 9.28632 26.9317 8.92889C25.893 8.28707 24.695 7.96693 23.4659 8.0027C20.0968 8.10125 17.4355 10.8201 17.4073 14.1926C17.3913 16.1232 18.248 17.9221 19.7578 19.128C19.8059 19.1665 19.8336 19.2211 19.8336 19.278V22.276C19.8336 22.3563 19.7826 22.4278 19.7068 22.4541L19.2366 22.6167L17.206 18.9211C17.134 18.7899 16.9961 18.7084 16.8465 18.7084H15.6925L16.3461 18.0548C16.7539 17.647 16.9785 17.1049 16.9785 16.5283C16.9785 15.9516 16.754 15.4095 16.3462 15.0017C16.3462 15.0017 16.3462 15.0017 16.3461 15.0017C15.5044 14.16 14.1348 14.1601 13.2931 15.0017L12.7426 15.5523L12.1919 15.0017C11.3503 14.16 9.98067 14.1599 9.13886 15.0017C8.73111 15.4094 8.50657 15.9515 8.50657 16.5282C8.50657 16.7965 8.55579 17.0571 8.64886 17.3004C8.54611 17.375 8.479 17.4957 8.479 17.6323C8.479 17.8589 8.66259 18.0425 8.88916 18.0425H9.12721C9.13115 18.0465 9.13487 18.0507 9.13886 18.0547L12.3356 21.2515C12.4443 21.3602 12.5888 21.4201 12.7426 21.4201C12.8962 21.4201 13.0407 21.3602 13.1494 21.2515L14.8722 19.5287H16.6038L18.45 22.8886L14.8366 24.1382C12.9208 24.8007 11.6337 26.6078 11.6337 28.635V34.9169C11.6337 35.5141 12.1196 36 12.7168 36H32.1975C32.7946 36 33.2805 35.5142 33.2805 34.9169V32.5547C33.2805 32.3281 33.0969 32.1445 32.8703 32.1445ZM12.7426 20.4982L10.2868 18.0424H10.96L11.1114 18.512C11.1649 18.6776 11.317 18.7915 11.4909 18.7962C11.4946 18.7962 11.4982 18.7963 11.5018 18.7963C11.6715 18.7963 11.8241 18.6916 11.8849 18.5324L12.093 17.9877L12.4883 19.0658C12.5476 19.2276 12.7016 19.3348 12.8734 19.3348C12.8761 19.3348 12.8788 19.3348 12.8815 19.3347C13.0565 19.3313 13.2101 19.2171 13.2637 19.0505L13.5975 18.0155H13.9846C14.2112 18.0155 14.3948 17.8319 14.3948 17.6054C14.3948 17.3789 14.2112 17.1952 13.9846 17.1952H13.2987C13.1207 17.1952 12.963 17.3101 12.9084 17.4795L12.8484 17.6653L12.4857 16.6764C12.4269 16.5158 12.2745 16.4086 12.1034 16.4075C12.1025 16.4075 12.1016 16.4075 12.1007 16.4075C11.9307 16.4075 11.7782 16.5123 11.7175 16.6713L11.4819 17.2882C11.4169 17.246 11.3398 17.2221 11.2586 17.2221H9.52042C9.39436 17.015 9.32688 16.7768 9.32688 16.5281C9.32688 16.1706 9.46611 15.8344 9.71888 15.5816C9.97985 15.3207 10.3226 15.1902 10.6654 15.1902C11.0081 15.1902 11.351 15.3207 11.6119 15.5816L12.4525 16.4223C12.6128 16.5825 12.8724 16.5825 13.0326 16.4223L13.8732 15.5816C14.395 15.0598 15.2443 15.0597 15.7661 15.5816C16.0189 15.8344 16.1582 16.1706 16.1582 16.5281C16.1582 16.8856 16.0189 17.2218 15.7661 17.4746L12.7426 20.4982Z" fill="white"/>
<path d="M21.9484 14.5662H22.2165C22.4431 14.5662 22.6267 14.3825 22.6267 14.156C22.6267 13.9295 22.4431 13.7458 22.2165 13.7458H21.9484C21.0127 13.7458 20.2515 14.5071 20.2515 15.4429C20.2515 16.3786 21.0127 17.1399 21.9484 17.1399H22.2165C22.4431 17.1399 22.6267 16.9562 22.6267 16.7297C22.6267 16.5032 22.4431 16.3196 22.2165 16.3196H21.9484C21.465 16.3196 21.0718 15.9263 21.0718 15.4429C21.0718 14.9594 21.465 14.5662 21.9484 14.5662Z" fill="white"/>
<path d="M27.0645 13.3867C26.8379 13.3867 26.6543 13.5704 26.6543 13.7969V14.3954C26.6543 14.6219 26.8379 14.8055 27.0645 14.8055C27.291 14.8055 27.4746 14.6219 27.4746 14.3954V13.7969C27.4746 13.5704 27.291 13.3867 27.0645 13.3867Z" fill="white"/>
<path d="M35.5212 14.802V12.0605C35.5212 11.834 35.3376 11.6504 35.111 11.6504C34.8844 11.6504 34.7008 11.834 34.7008 12.0605V12.4763H32.2544V12.0605C32.2544 11.834 32.0708 11.6504 31.8442 11.6504C31.6177 11.6504 31.4341 11.834 31.4341 12.0605V14.802C31.4341 15.4663 31.7514 16.1008 32.2828 16.4993L32.7941 16.8828L32.2828 17.2662C31.7514 17.6648 31.4341 18.2993 31.4341 18.9635V21.6819C31.4341 21.9084 31.6177 22.092 31.8442 22.092C32.0708 22.092 32.2544 21.9084 32.2544 21.6819V21.2373H34.7008V21.6819C34.7008 21.9084 34.8844 22.092 35.111 22.092C35.3376 22.092 35.5212 21.9084 35.5212 21.6819V18.9635C35.5212 18.2993 35.2039 17.6648 34.6725 17.2662L34.1612 16.8828L34.6725 16.4993C35.2039 16.1008 35.5212 15.4662 35.5212 14.802ZM32.2544 13.2965H34.7008V14.1585H32.2544V13.2965ZM34.7008 20.417H32.2544V19.555H34.7008V20.417ZM34.1803 17.9225C34.4445 18.1206 34.6223 18.4138 34.6802 18.7347H32.275C32.333 18.4138 32.5108 18.1206 32.7749 17.9225L33.4776 17.3955L34.1803 17.9225ZM34.1803 15.8431L33.4776 16.3701L32.775 15.8431C32.4966 15.6343 32.3146 15.3199 32.2671 14.9789H34.6882C34.6407 15.3199 34.4586 15.6343 34.1803 15.8431Z" fill="white"/>
<path d="M26.4924 12.629C26.602 12.5055 26.6538 12.3409 26.6344 12.1773C26.4841 10.9083 25.1655 9.95142 23.5672 9.95142C21.9689 9.95142 20.6504 10.9083 20.5001 12.1773C20.4807 12.3409 20.5325 12.5055 20.6422 12.629C20.7524 12.753 20.9107 12.8242 21.0765 12.8242H26.058C26.2238 12.8242 26.3822 12.753 26.4924 12.629ZM21.3787 12.0038C21.6336 11.2947 22.5315 10.7717 23.5673 10.7717C24.603 10.7717 25.5008 11.2947 25.7559 12.0038H21.3787Z" fill="white"/>
<path d="M15.7894 21.3293C16.0159 21.3293 16.1995 21.1457 16.1995 20.9192C16.1995 20.6927 16.0159 20.509 15.7894 20.509H14.7324C14.5059 20.509 14.3223 20.6927 14.3223 20.9192C14.3223 21.1457 14.5059 21.3293 14.7324 21.3293H15.7894Z" fill="white"/>
<path d="M9.50342 21.3293H10.5603C10.7869 21.3293 10.9705 21.1457 10.9705 20.9192C10.9705 20.6927 10.7869 20.509 10.5603 20.509H9.50342C9.27685 20.509 9.09326 20.6927 9.09326 20.9192C9.09326 21.1457 9.2769 21.3293 9.50342 21.3293Z" fill="white"/>
<path d="M9.50342 22.6541H15.7894C16.0159 22.6541 16.1995 22.4704 16.1995 22.2439C16.1995 22.0174 16.0159 21.8337 15.7894 21.8337H9.50342C9.27685 21.8337 9.09326 22.0174 9.09326 22.2439C9.09326 22.4704 9.2769 22.6541 9.50342 22.6541Z" fill="white"/>
<path d="M14.0857 23.5688C14.0857 23.3423 13.9021 23.1587 13.6755 23.1587H9.50342C9.27685 23.1587 9.09326 23.3423 9.09326 23.5688C9.09326 23.7954 9.27685 23.979 9.50342 23.979H13.6755C13.9021 23.979 14.0857 23.7954 14.0857 23.5688Z" fill="white"/>
</g>
<defs>
<filter id="filter0_d_684_5903" x="0" y="0" width="44" height="44" filterUnits="userSpaceOnUse" color-interpolation-filters="sRGB">
<feFlood flood-opacity="0" result="BackgroundImageFix"/>
<feColorMatrix in="SourceAlpha" type="matrix" values="0 0 0 0 0 0 0 0 0 0 0 0 0 0 0 0 0 0 127 0" result="hardAlpha"/>
<feOffset/>
<feGaussianBlur stdDeviation="4"/>
<feComposite in2="hardAlpha" operator="out"/>
<feColorMatrix type="matrix" values="0 0 0 0 0.129412 0 0 0 0 0.129412 0 0 0 0 0.129412 0 0 0 0.32 0"/>
<feBlend mode="normal" in2="BackgroundImageFix" result="effect1_dropShadow_684_5903"/>
<feBlend mode="normal" in="SourceGraphic" in2="effect1_dropShadow_684_5903" result="shape"/>
</filter>
<clipPath id="clip0_684_5903">
<rect width="28" height="28" fill="white" transform="translate(8 8)"/>
</clipPath>
</defs>
</svg>
