<svg width="30" height="30" viewBox="0 0 30 30" fill="none" xmlns="http://www.w3.org/2000/svg">
<g clip-path="url(#clip0_684_5813)">
<g filter="url(#filter0_d_684_5813)">
<path fill-rule="evenodd" clip-rule="evenodd" d="M4.17795 26.64C3.98867 26.64 3.83643 26.4877 3.83643 26.2985V2.93072C3.83643 1.31774 5.14904 0.00512695 6.76202 0.00512695H24.4061C24.974 0.00512695 25.4348 0.46598 25.4348 1.03793V23.6732C25.4348 23.8625 25.2826 24.0148 25.0933 24.0148H6.80317C5.54405 24.0148 4.51948 25.0393 4.51948 26.2985C4.51948 26.4877 4.36723 26.64 4.17795 26.64ZM6.76202 0.692292C5.52759 0.692292 4.51948 1.69629 4.51948 2.93072V24.4016C5.06674 23.7473 5.88558 23.3276 6.80317 23.3276H24.7518V1.03793C24.7518 0.844539 24.5954 0.692292 24.4061 0.692292H6.76202Z" fill="white"/>
<path fill-rule="evenodd" clip-rule="evenodd" d="M25.0933 29.2652H6.80317C5.16549 29.2652 3.83643 27.9362 3.83643 26.2985C3.83643 24.6608 5.16549 23.3276 6.80317 23.3276H25.0933C25.3896 23.3276 25.5253 23.6692 25.3731 23.8872C24.365 25.3398 24.365 27.2531 25.3731 28.7056C25.5253 28.9237 25.3896 29.2652 25.0933 29.2652ZM6.80317 24.0148C5.54405 24.0148 4.51948 25.0394 4.51948 26.2985C4.51948 27.5576 5.54405 28.5781 6.80317 28.5781H24.4967C23.7437 27.1544 23.7437 25.4426 24.4967 24.0148H6.80317Z" fill="white"/>
<path fill-rule="evenodd" clip-rule="evenodd" d="M7.51507 24.0148C7.32579 24.0148 7.16943 23.8625 7.16943 23.6732V0.346636C7.16943 -0.101873 7.8566 -0.101873 7.8566 0.346636V23.6732C7.8566 23.8625 7.70435 24.0148 7.51507 24.0148Z" fill="white"/>
<path fill-rule="evenodd" clip-rule="evenodd" d="M20.3161 25.7307H8.95519C8.50257 25.7307 8.50257 25.0476 8.95519 25.0476H20.3161C20.7687 25.0476 20.7687 25.7307 20.3161 25.7307Z" fill="white"/>
<path fill-rule="evenodd" clip-rule="evenodd" d="M20.3161 27.5495H8.95519C8.50257 27.5495 8.50257 26.8623 8.95519 26.8623H20.3161C20.7687 26.8623 20.7687 27.5495 20.3161 27.5495Z" fill="white"/>
<path fill-rule="evenodd" clip-rule="evenodd" d="M16.802 7.39112C16.5428 7.39112 16.3741 7.1072 16.5058 6.87678L17.2588 5.5724C17.4851 5.18149 18.0776 5.52302 17.8554 5.91392L17.1024 7.2183C17.0366 7.3294 16.9214 7.39112 16.802 7.39112Z" fill="white"/>
<path fill-rule="evenodd" clip-rule="evenodd" d="M19.7072 9.16462L17.6374 8.95889C17.1889 8.91362 17.2589 8.23057 17.7074 8.27583L19.7401 8.47746C20.1721 8.52272 20.1351 9.16462 19.7072 9.16462Z" fill="white"/>
<path fill-rule="evenodd" clip-rule="evenodd" d="M17.3578 12.1191C17.2179 12.1191 17.0903 12.0368 17.0368 11.901L16.3949 10.2304C16.2303 9.81071 16.8722 9.56382 17.0327 9.98353L17.6787 11.6541C17.7651 11.8804 17.5923 12.1191 17.3578 12.1191Z" fill="white"/>
<path fill-rule="evenodd" clip-rule="evenodd" d="M14.3126 11.7075C14.0492 11.7075 13.8805 11.4236 14.0163 11.1932L14.7693 9.8888C14.9956 9.4979 15.5882 9.83943 15.3618 10.2303L14.6088 11.5347C14.5471 11.6458 14.4319 11.7075 14.3126 11.7075Z" fill="white"/>
<path fill-rule="evenodd" clip-rule="evenodd" d="M12.8849 9.50202C12.4981 9.50202 12.4117 8.95065 12.7862 8.83543L14.1029 8.42396C14.5349 8.28817 14.7407 8.94242 14.3086 9.0782C14.1111 9.13992 13.0001 9.50202 12.8849 9.50202Z" fill="white"/>
<path fill-rule="evenodd" clip-rule="evenodd" d="M14.9955 7.4322C14.8885 7.4322 14.7898 7.38693 14.7198 7.30052L13.3496 5.50237C13.2344 5.35013 13.2632 5.13616 13.4113 5.02094C13.5636 4.90573 13.7775 4.93453 13.8928 5.08678L15.2671 6.88493C15.4399 7.11124 15.2671 7.4322 14.9955 7.4322Z" fill="white"/>
<path fill-rule="evenodd" clip-rule="evenodd" d="M18.0653 6.2226C17.0284 6.2226 16.3618 5.09104 16.8885 4.18168C17.2629 3.53155 18.0941 3.30935 18.7443 3.68379C19.3944 4.05824 19.6207 4.89353 19.2463 5.54367C19.0035 5.96337 18.5509 6.2226 18.0653 6.2226ZM18.0653 4.18579C17.3823 4.18579 17.1313 5.10339 17.7279 5.44491C18.053 5.63419 18.4645 5.52309 18.6496 5.19803C18.913 4.7454 18.5797 4.18579 18.0653 4.18579Z" fill="white"/>
<path fill-rule="evenodd" clip-rule="evenodd" d="M13.8026 13.6044C12.7657 13.6044 12.0991 12.477 12.6258 11.5635C13.0002 10.9134 13.8314 10.6912 14.4857 11.0656C15.1317 11.4401 15.358 12.2754 14.9836 12.9255C14.7408 13.3452 14.2882 13.6044 13.8026 13.6044ZM13.8026 11.5717C13.1196 11.5717 12.8686 12.4852 13.4652 12.8309C13.7903 13.016 14.2018 12.9049 14.3869 12.584C14.6503 12.1314 14.317 11.5717 13.8026 11.5717Z" fill="white"/>
<path fill-rule="evenodd" clip-rule="evenodd" d="M11.8847 10.7076C10.7861 10.7076 10.1483 9.4691 10.7655 8.57208C11.4486 7.58043 13.004 7.90549 13.222 9.09877C13.3784 9.93819 12.7324 10.7076 11.8847 10.7076ZM11.8847 8.67084C11.465 8.67084 11.1441 9.0494 11.2223 9.4691C11.3292 10.0616 12.1028 10.2221 12.4402 9.72833C12.7447 9.28394 12.432 8.67084 11.8847 8.67084Z" fill="white"/>
<path fill-rule="evenodd" clip-rule="evenodd" d="M13.0204 5.83154C12.1769 5.83154 11.5391 5.07442 11.679 4.24735C11.8765 3.05407 13.4236 2.7002 14.1273 3.68363C14.7692 4.58476 14.1232 5.83154 13.0204 5.83154ZM13.0204 3.79884C12.4731 3.79884 12.1522 4.41606 12.469 4.86457C12.8188 5.35423 13.5882 5.17729 13.687 4.58476C13.7528 4.17329 13.436 3.79884 13.0204 3.79884Z" fill="white"/>
<path fill-rule="evenodd" clip-rule="evenodd" d="M17.695 14.0981C16.728 14.0981 16.0738 13.1229 16.4317 12.23C16.8803 11.1108 18.4727 11.0861 18.9459 12.2053C19.2421 12.8925 18.9171 13.6949 18.2299 13.9912C18.0571 14.0611 17.8801 14.0981 17.695 14.0981ZM17.695 12.0613C17.2136 12.0613 16.8803 12.5551 17.0736 13.0036C17.2218 13.3492 17.6168 13.5056 17.9583 13.3575C18.6331 13.0736 18.4233 12.0613 17.695 12.0613Z" fill="white"/>
<path fill-rule="evenodd" clip-rule="evenodd" d="M20.7234 10.2632C19.9374 10.2632 19.3079 9.59247 19.3655 8.80655C19.419 8.06589 20.0691 7.48982 20.8221 7.54743C21.571 7.60092 22.1347 8.25517 22.0812 9.00406C22.0277 9.7118 21.4311 10.2632 20.7234 10.2632ZM20.7192 8.23048C20.1473 8.23048 19.8346 8.90942 20.2131 9.34558C20.604 9.79821 21.3529 9.55132 21.3941 8.95056C21.4229 8.56378 21.1101 8.23048 20.7192 8.23048Z" fill="white"/>
<path fill-rule="evenodd" clip-rule="evenodd" d="M15.9338 10.6377C14.3414 10.6377 13.3251 8.90543 14.1316 7.51464C14.7035 6.51886 15.9791 6.17734 16.9749 6.74929C17.9706 7.32536 18.3122 8.60093 17.7361 9.59259C17.3658 10.2386 16.6745 10.6377 15.9338 10.6377ZM15.9338 7.15665C15.0245 7.15665 14.3455 8.02487 14.5842 8.91366C14.9051 10.1152 16.5222 10.325 17.1436 9.25107C17.6826 8.31701 16.9954 7.15665 15.9338 7.15665Z" fill="white"/>
<path fill-rule="evenodd" clip-rule="evenodd" d="M21.9291 21.1057H10.6793C10.2349 21.1057 9.87695 20.7477 9.87695 20.3033V17.0485C9.87695 16.6082 10.2349 16.2502 10.6793 16.2502H21.9291C22.3694 16.2502 22.7315 16.6082 22.7315 17.0485V20.3033C22.7315 20.7477 22.3694 21.1057 21.9291 21.1057ZM10.6793 16.9333C10.6135 16.9333 10.56 16.9868 10.56 17.0485V20.3033C10.56 20.3691 10.6135 20.4185 10.6793 20.4185H21.9291C21.9908 20.4185 22.0443 20.365 22.0443 20.3033V17.0485C22.0443 16.9868 21.9908 16.9333 21.9291 16.9333H10.6793Z" fill="white"/>
<path fill-rule="evenodd" clip-rule="evenodd" d="M20.8756 18.2787H11.7285C11.28 18.2787 11.28 17.5916 11.7285 17.5916H20.8756C21.3282 17.5916 21.3282 18.2787 20.8756 18.2787Z" fill="white"/>
<path fill-rule="evenodd" clip-rule="evenodd" d="M20.8756 19.7643H11.7285C11.28 19.7643 11.28 19.0771 11.7285 19.0771H20.8756C21.3282 19.0771 21.3282 19.7643 20.8756 19.7643Z" fill="white"/>
</g>
</g>
<defs>
<filter id="filter0_d_684_5813" x="-4.16357" y="-7.99487" width="37.5996" height="45.26" filterUnits="userSpaceOnUse" color-interpolation-filters="sRGB">
<feFlood flood-opacity="0" result="BackgroundImageFix"/>
<feColorMatrix in="SourceAlpha" type="matrix" values="0 0 0 0 0 0 0 0 0 0 0 0 0 0 0 0 0 0 127 0" result="hardAlpha"/>
<feOffset/>
<feGaussianBlur stdDeviation="4"/>
<feComposite in2="hardAlpha" operator="out"/>
<feColorMatrix type="matrix" values="0 0 0 0 0.129412 0 0 0 0 0.129412 0 0 0 0 0.129412 0 0 0 0.32 0"/>
<feBlend mode="normal" in2="BackgroundImageFix" result="effect1_dropShadow_684_5813"/>
<feBlend mode="normal" in="SourceGraphic" in2="effect1_dropShadow_684_5813" result="shape"/>
</filter>
<clipPath id="clip0_684_5813">
<rect width="29.2601" height="29.2601" fill="white" transform="translate(0.00537109 0.00512695)"/>
</clipPath>
</defs>
</svg>
