<svg width="19" height="31" viewBox="0 0 19 31" fill="none" xmlns="http://www.w3.org/2000/svg">
<path d="M11.57 29.2106C11.5038 29.528 11.3492 29.819 11.1248 30.0485C10.9003 30.278 10.6157 30.4361 10.3053 30.5037C9.27596 30.6654 8.22846 30.6654 7.19908 30.5037C6.88863 30.4362 6.60396 30.2781 6.37953 30.0486C6.15509 29.8191 6.0005 29.528 5.93445 29.2106C5.775 28.1577 5.775 27.086 5.93445 26.0331C6.0005 25.7157 6.15509 25.4246 6.37953 25.1951C6.60396 24.9656 6.88863 24.8075 7.19908 24.74C8.22846 24.5783 9.27596 24.5783 10.3053 24.74C10.6163 24.8079 10.9012 24.9666 11.1257 25.1969C11.3502 25.4272 11.5045 25.7191 11.57 26.0372C11.7294 27.0901 11.7294 28.1618 11.57 29.2146V29.2106ZM17.637 12.5194C16.8677 13.6322 15.7146 14.6482 14.0085 15.7152C11.849 17.0766 11.5032 17.6361 11.5032 18.7316V19.1647C11.5102 19.5392 11.4441 19.9113 11.3087 20.2593C11.1734 20.6074 10.9716 20.9243 10.7151 21.1917C10.4586 21.459 10.1525 21.6714 9.81479 21.8163C9.47708 21.9613 9.11449 22.036 8.74822 22.036C8.38196 22.036 8.01937 21.9613 7.68166 21.8163C7.34395 21.6714 7.03788 21.459 6.78137 21.1917C6.52486 20.9243 6.32304 20.6074 6.18772 20.2593C6.05239 19.9113 5.98628 19.5392 5.99325 19.1647V18.1609C5.99325 16.8688 6.30916 15.7723 6.95891 14.8092C7.58873 13.8758 8.53347 13.0463 9.93263 12.1954C12.5127 10.6433 12.9851 9.77205 12.9851 8.61542C12.9851 7.16225 11.7743 6.22268 9.89576 6.22268C7.84385 6.22268 6.50747 7.17651 5.92449 9.05871C5.7356 9.66422 5.36238 10.1921 4.85931 10.5654C4.35625 10.9387 3.74968 11.1377 3.12815 11.1335C3.0564 11.1335 2.98365 11.1335 2.9129 11.1254C2.46639 11.0932 2.03299 10.9571 1.64576 10.7275C1.25854 10.4979 0.927739 10.1809 0.678622 9.80058C0.429723 9.42708 0.267641 9.00032 0.20477 8.55293C0.141899 8.10554 0.179903 7.64938 0.315876 7.21931C0.913791 5.25947 2.14009 3.56284 3.79684 2.40325C5.46707 1.23949 7.57678 0.625 9.89576 0.625C12.3044 0.625 14.5397 1.41069 16.19 2.83737C17.8891 4.30481 18.8239 6.32968 18.8239 8.53797C18.8289 10.0564 18.4392 11.3628 17.637 12.5194Z" fill="#FC5656"/>
</svg>
